<svg xmlns="http://www.w3.org/2000/svg" width="900" height="900" viewBox="100 0 700 700">
    <defs>
        <style>
            .cls-3 { fill: #372f8a; }
            .cls-5 { fill: #39a4dd; }
        </style>
    </defs>
    <g id="abstract_paperplane" data-name="abstract paperplane">
        <polygon class="cls-3" points="458.87 433.13 518.95 493.21 600.96 205.82 319.63 285 378.71 344.09 365.81 403.24 228.53 265.97 664.77 142.21 541.02 578.46 403.74 441.17 458.87 433.13" />
        <line class="cls-4" x1="228.54" y1="265.97" x2="664.77" y2="142.21" />
        <line class="cls-4" x1="319.63" y1="285.01" x2="306.6" y2="243.79" />
        <line class="cls-4" x1="365.81" y1="403.24" x2="403.74" y2="441.17" />
        <line class="cls-4" x1="699.21" y1="112.77" x2="298.05" y2="508.93" />
        <polygon class="cls-5" points="458.87 433.13 508.4 298.87 378.71 344.09 365.81 403.24 423.1 383.89 403.74 441.17 458.87 433.13" />
        <line class="cls-4" x1="600.96" y1="205.82" x2="587.93" y2="164.61" />
        <line class="cls-4" x1="664.77" y1="142.21" x2="541.02" y2="578.46" />
        <line class="cls-4" x1="518.95" y1="493.21" x2="541.02" y2="578.46" />
        <line class="cls-4" x1="600.96" y1="205.82" x2="518.95" y2="493.21" />
    </g>
</svg>
