<svg version="1.1" viewBox="0.0 0.0 960.0 540.0" fill="none" stroke="none" stroke-linecap="square" stroke-miterlimit="10" xmlns:xlink="http://www.w3.org/1999/xlink" xmlns="http://www.w3.org/2000/svg"><clipPath id="g367021fb0a5_0_17.0"><path d="m0 0l960.0 0l0 540.0l-960.0 0l0 -540.0z" clip-rule="nonzero"/></clipPath><g clip-path="url(#g367021fb0a5_0_17.0)"><path fill="#ffffff" d="m0 0l960.0 0l0 540.0l-960.0 0z" fill-rule="evenodd"/><path fill="#000000" fill-opacity="0.0" d="m487.5643 146.56693l450.4567 0l0 246.86615l-450.4567 0z" fill-rule="evenodd"/><path stroke="#cccccc" stroke-width="3.0" stroke-linejoin="round" stroke-linecap="butt" d="m487.5643 146.56693l450.4567 0l0 246.86615l-450.4567 0z" fill-rule="evenodd"/><path fill="#000000" fill-opacity="0.0" d="m508.01312 160.17323l207.46454 0l0 221.70079l-207.46454 0z" fill-rule="evenodd"/><path stroke="#cccccc" stroke-width="3.0" stroke-linejoin="round" stroke-linecap="butt" d="m508.01312 160.17323l207.46454 0l0 221.70079l-207.46454 0z" fill-rule="evenodd"/><path fill="#c9daf8" d="m273.28217 215.55643l93.322815 0l0 118.04724l-93.322815 0z" fill-rule="evenodd"/><path fill="#000000" d="m295.72687 256.1407q0 -0.45314026 -0.140625 -0.81251526q-0.140625 -0.359375 -0.5 -0.65625q-0.34375 -0.296875 -0.96875 -0.546875q-0.609375 -0.265625 -1.546875 -0.546875q-0.984375 -0.296875 -1.78125 -0.65625q-0.78125 -0.359375 -1.34375 -0.8125q-0.5625 -0.46875 -0.875 -1.0625q-0.296875 -0.609375 -0.296875 -1.390625q0 -0.765625 0.3125 -1.421875q0.328125 -0.65625 0.921875 -1.140625q0.59375 -0.5 1.421875 -0.765625q0.828125 -0.28125 1.859375 -0.28125q1.484375 0 2.53125 0.578125q1.046875 0.5625 1.59375 1.484375q0.546875 0.921875 0.546875 1.953125l-1.75 0q0 -0.75 -0.328125 -1.328125q-0.3125 -0.578125 -0.96875 -0.90625q-0.640625 -0.328125 -1.625 -0.328125q-0.9375 0 -1.5625 0.28125q-0.609375 0.28125 -0.90625 0.765625q-0.28125 0.484375 -0.28125 1.09375q0 0.421875 0.171875 0.765625q0.171875 0.34375 0.546875 0.640625q0.390625 0.28125 0.96875 0.53125q0.59375 0.25 1.40625 0.46875q1.140625 0.328125 1.953125 0.71875q0.828125 0.390625 1.359375 0.875q0.53125 0.484375 0.78125 1.109375q0.265625 0.609375 0.265625 1.3750153q0 0.8125 -0.328125 1.46875q-0.328125 0.65625 -0.9375 1.125q-0.609375 0.46875 -1.46875 0.71875q-0.84375 0.25 -1.890625 0.25q-0.921875 0 -1.8125 -0.25q-0.890625 -0.265625 -1.609375 -0.765625q-0.71875 -0.515625 -1.15625 -1.265625q-0.4375 -0.75 -0.4375 -1.7500153l1.75 0q0 0.68751526 0.265625 1.1718903q0.265625 0.484375 0.71875 0.8125q0.46875 0.3125 1.046875 0.46875q0.59375 0.140625 1.234375 0.140625q0.921875 0 1.546875 -0.25q0.640625 -0.265625 0.96875 -0.734375q0.34375 -0.46875 0.34375 -1.125zm5.4521484 -10.64064l0 14.000015l-1.703125 0l0 -14.000015l1.703125 0zm6.015625 4.140625l-4.296875 4.609375l-2.40625 2.4843903l-0.140625 -1.7968903l1.71875 -2.046875l3.0625 -3.25l2.0625 0zm-1.546875 9.85939l-3.515625 -4.7031403l0.875 -1.5l4.640625 6.2031403l-2.0 0zm6.049408 -1.015625l2.75 -8.843765l1.796875 0l-3.953125 11.375015q-0.125 0.375 -0.359375 0.796875q-0.21875 0.421875 -0.5625 0.796875q-0.34375 0.390625 -0.84375 0.625q-0.484375 0.25 -1.15625 0.25q-0.203125 0 -0.515625 -0.0625q-0.296875 -0.046875 -0.421875 -0.09375l-0.015625 -1.359375q0.078125 0.015625 0.234375 0.015625q0.15625 0.015625 0.21875 0.015625q0.578125 0 0.96875 -0.15625q0.40625 -0.140625 0.6875 -0.5q0.28125 -0.34375 0.484375 -0.953125l0.6875 -1.90625zm-2.0 -8.843765l2.546875 7.6562653l0.4375 1.78125l-1.203125 0.609375l-3.625 -10.04689l1.84375 0zm9.748993 1.890625l0 11.76564l-1.6875 0l0 -13.656265l1.546875 0l0.140625 1.890625zm6.640625 2.953125l0 0.203125q0 1.0625 -0.265625 1.9843903q-0.25 0.921875 -0.734375 1.59375q-0.484375 0.671875 -1.203125 1.046875q-0.703125 0.375 -1.625 0.375q-0.9375 0 -1.65625 -0.3125q-0.71875 -0.3125 -1.21875 -0.90625q-0.5 -0.59375 -0.796875 -1.421875q-0.296875 -0.828125 -0.40625 -1.8593903l0 -1.03125q0.109375 -1.09375 0.40625 -1.953125q0.296875 -0.859375 0.796875 -1.46875q0.5 -0.625 1.203125 -0.9375q0.71875 -0.328125 1.640625 -0.328125q0.9375 0 1.65625 0.359375q0.71875 0.359375 1.203125 1.03125q0.5 0.65625 0.75 1.578125q0.25 0.921875 0.25 2.046875zm-1.6875 0.203125l0 -0.203125q0 -0.734375 -0.15625 -1.375q-0.15625 -0.65625 -0.484375 -1.15625q-0.328125 -0.5 -0.828125 -0.78125q-0.5 -0.296875 -1.1875 -0.296875q-0.640625 0 -1.109375 0.21875q-0.46875 0.21875 -0.796875 0.59375q-0.328125 0.375 -0.53125 0.84375q-0.203125 0.46875 -0.3125 0.96875l0 2.359375q0.1875 0.64064026 0.515625 1.2031403q0.328125 0.546875 0.875 0.890625q0.546875 0.34375 1.375 0.34375q0.6875 0 1.171875 -0.28125q0.5 -0.296875 0.828125 -0.796875q0.328125 -0.5 0.484375 -1.140625q0.15625 -0.65626526 0.15625 -1.3906403zm5.6634216 -5.046875l0 9.85939l-1.6875 0l0 -9.85939l1.6875 0zm-1.8125 -2.609375q0 -0.40625 0.25 -0.6875q0.25 -0.296875 0.734375 -0.296875q0.484375 0 0.734375 0.296875q0.265625 0.28125 0.265625 0.6875q0 0.390625 -0.265625 0.671875q-0.25 0.265625 -0.734375 0.265625q-0.484375 0 -0.734375 -0.265625q-0.25 -0.28125 -0.25 -0.671875zm6.3490295 -1.53125l0 14.000015l-1.6875 0l0 -14.000015l1.6875 0zm2.2709045 9.1875l0 -0.21875q0 -1.0625 0.296875 -1.96875q0.3125 -0.921875 0.890625 -1.59375q0.59375 -0.6875 1.421875 -1.0625q0.828125 -0.375 1.859375 -0.375q1.03125 0 1.859375 0.375q0.84375 0.375 1.421875 1.0625q0.59375 0.671875 0.90625 1.59375q0.3125 0.90625 0.3125 1.96875l0 0.21875q0 1.0625 -0.3125 1.9687653q-0.3125 0.90625 -0.90625 1.59375q-0.578125 0.671875 -1.40625 1.0625q-0.8125 0.375 -1.859375 0.375q-1.03125 0 -1.875 -0.375q-0.828125 -0.390625 -1.421875 -1.0625q-0.578125 -0.6875 -0.890625 -1.59375q-0.296875 -0.90626526 -0.296875 -1.9687653zm1.671875 -0.21875l0 0.21875q0 0.734375 0.171875 1.3906403q0.1875 0.640625 0.53125 1.140625q0.359375 0.5 0.875 0.796875q0.53125 0.28125 1.234375 0.28125q0.6875 0 1.203125 -0.28125q0.53125 -0.296875 0.875 -0.796875q0.359375 -0.5 0.53125 -1.140625q0.171875 -0.65626526 0.171875 -1.3906403l0 -0.21875q0 -0.71875 -0.171875 -1.375q-0.171875 -0.65625 -0.53125 -1.15625q-0.34375 -0.515625 -0.875 -0.796875q-0.515625 -0.296875 -1.21875 -0.296875q-0.6875 0 -1.21875 0.296875q-0.515625 0.28125 -0.875 0.796875q-0.34375 0.5 -0.53125 1.15625q-0.171875 0.65625 -0.171875 1.375zm13.530518 -4.828125l0 1.296875l-5.328125 0l0 -1.296875l5.328125 0zm-3.515625 -2.390625l1.6875 0l0 9.812515q0 0.5 0.140625 0.75q0.15625 0.25 0.40625 0.34375q0.25 0.078125 0.53125 0.078125q0.203125 0 0.4375 -0.03125q0.234375 -0.046875 0.359375 -0.078125l0 1.375q-0.203125 0.0625 -0.53125 0.125q-0.3125 0.0625 -0.765625 0.0625q-0.625 0 -1.140625 -0.25q-0.515625 -0.25 -0.828125 -0.828125q-0.296875 -0.578125 -0.296875 -1.5625l0 -9.79689z" fill-rule="nonzero"/><path fill="#000000" d="m311.88983 269.4063l-4.390625 12.09375l-1.796875 0l5.046875 -13.265625l1.171875 0l-0.03125 1.171875zm3.671875 12.09375l-4.390625 -12.09375l-0.03125 -1.171875l1.15625 0l5.078125 13.265625l-1.8125 0zm-0.21875 -4.90625l0 1.4375l-7.453125 0l0 -1.4375l7.453125 0zm8.701538 -0.296875l-3.546875 0l0 -1.421875l3.546875 0q1.015625 0 1.65625 -0.328125q0.640625 -0.328125 0.9375 -0.90625q0.296875 -0.59375 0.296875 -1.34375q0 -0.6875 -0.296875 -1.28125q-0.296875 -0.609375 -0.9375 -0.96875q-0.640625 -0.375 -1.65625 -0.375l-3.140625 0l0 11.828125l-1.75 0l0 -13.265625l4.890625 0q1.5 0 2.53125 0.53125q1.046875 0.515625 1.578125 1.4375q0.546875 0.90625 0.546875 2.078125q0 1.28125 -0.546875 2.1875q-0.53125 0.890625 -1.578125 1.359375q-1.03125 0.46875 -2.53125 0.46875zm8.753845 -8.0625l0 13.265625l-1.75 0l0 -13.265625l1.75 0z" fill-rule="nonzero"/><path fill="#000000" d="m301.38882 300.8907q0 -0.375 -0.15625 -0.6875q-0.15625 -0.3125 -0.640625 -0.5625q-0.484375 -0.265625 -1.46875 -0.453125q-0.8125 -0.171875 -1.484375 -0.40625q-0.65625 -0.25 -1.125 -0.578125q-0.453125 -0.34375 -0.703125 -0.796875q-0.234375 -0.453125 -0.234375 -1.0625q0 -0.59375 0.25 -1.109375q0.265625 -0.515625 0.734375 -0.90625q0.484375 -0.40625 1.15625 -0.625q0.6875 -0.234375 1.515625 -0.234375q1.1875 0 2.015625 0.421875q0.84375 0.40625 1.28125 1.109375q0.453125 0.6875 0.453125 1.546875l-1.6875 0q0 -0.421875 -0.25 -0.796875q-0.234375 -0.390625 -0.703125 -0.640625q-0.453125 -0.265625 -1.109375 -0.265625q-0.703125 0 -1.140625 0.21875q-0.4375 0.21875 -0.640625 0.546875q-0.1875 0.328125 -0.1875 0.6875q0 0.265625 0.09375 0.484375q0.109375 0.21875 0.34375 0.390625q0.25 0.171875 0.6875 0.328125q0.453125 0.15625 1.15625 0.3125q1.203125 0.28125 1.984375 0.671875q0.78125 0.375 1.15625 0.9375q0.390625 0.546875 0.390625 1.34375q0 0.640625 -0.265625 1.1875q-0.265625 0.53125 -0.78125 0.921875q-0.5 0.375 -1.203125 0.59375q-0.6875 0.21875 -1.546875 0.21875q-1.3125 0 -2.21875 -0.46875q-0.890625 -0.46875 -1.359375 -1.203125q-0.46875 -0.734375 -0.46875 -1.5625l1.703125 0q0.03125 0.703125 0.390625 1.109375q0.375 0.390625 0.890625 0.5625q0.53125 0.171875 1.0625 0.171875q0.6875 0 1.15625 -0.171875q0.46875 -0.1875 0.703125 -0.5q0.25 -0.328125 0.25 -0.734375zm7.988098 2.796875q-1.03125 0 -1.875 -0.34375q-0.828125 -0.359375 -1.421875 -1.0q-0.59375 -0.640625 -0.921875 -1.515625q-0.3125 -0.875 -0.3125 -1.90625l0 -0.390625q0 -1.203125 0.359375 -2.140625q0.359375 -0.9375 0.96875 -1.59375q0.609375 -0.65625 1.375 -0.984375q0.78125 -0.34375 1.609375 -0.34375q1.0625 0 1.828125 0.359375q0.765625 0.359375 1.25 1.015625q0.5 0.65625 0.734375 1.53125q0.234375 0.875 0.234375 1.921875l0 0.75l-7.359375 0l0 -1.375l5.6875 0l0 -0.125q-0.046875 -0.65625 -0.28125 -1.28125q-0.234375 -0.625 -0.734375 -1.015625q-0.5 -0.40625 -1.359375 -0.40625q-0.578125 0 -1.0625 0.25q-0.484375 0.234375 -0.828125 0.71875q-0.34375 0.46875 -0.53125 1.15625q-0.1875 0.671875 -0.1875 1.5625l0 0.390625q0 0.703125 0.1875 1.3125q0.203125 0.609375 0.578125 1.078125q0.375 0.46875 0.90625 0.734375q0.546875 0.265625 1.25 0.265625q0.890625 0 1.5 -0.359375q0.625 -0.375 1.09375 -0.984375l1.015625 0.8125q-0.3125 0.484375 -0.8125 0.921875q-0.484375 0.4375 -1.203125 0.71875q-0.71875 0.265625 -1.6875 0.265625zm7.486664 -8.5l0 8.3125l-1.6875 0l0 -9.859375l1.640625 0l0.046875 1.546875zm3.078125 -1.59375l0 1.5625q-0.21875 -0.046875 -0.40625 -0.0625q-0.1875 -0.015625 -0.421875 -0.015625q-0.578125 0 -1.03125 0.1875q-0.4375 0.1875 -0.75 0.515625q-0.3125 0.328125 -0.5 0.78125q-0.171875 0.4375 -0.21875 0.984375l-0.484375 0.265625q0 -0.890625 0.171875 -1.671875q0.1875 -0.78125 0.5625 -1.390625q0.375 -0.609375 0.953125 -0.9375q0.578125 -0.34375 1.375 -0.34375q0.1875 0 0.421875 0.046875q0.234375 0.03125 0.328125 0.078125zm4.7204285 8.390625l2.703125 -8.34375l1.71875 0l-3.546875 9.859375l-1.125 0l0.25 -1.515625zm-2.25 -8.34375l2.78125 8.390625l0.1875 1.46875l-1.125 0l-3.578125 -9.859375l1.734375 0zm12.261902 10.046875q-1.03125 0 -1.875 -0.34375q-0.828125 -0.359375 -1.421875 -1.0q-0.59375 -0.640625 -0.921875 -1.515625q-0.3125 -0.875 -0.3125 -1.90625l0 -0.390625q0 -1.203125 0.359375 -2.140625q0.359375 -0.9375 0.96875 -1.59375q0.609375 -0.65625 1.375 -0.984375q0.78125 -0.34375 1.609375 -0.34375q1.0625 0 1.828125 0.359375q0.765625 0.359375 1.25 1.015625q0.5 0.65625 0.734375 1.53125q0.234375 0.875 0.234375 1.921875l0 0.75l-7.359375 0l0 -1.375l5.6875 0l0 -0.125q-0.046875 -0.65625 -0.28125 -1.28125q-0.234375 -0.625 -0.734375 -1.015625q-0.5 -0.40625 -1.359375 -0.40625q-0.578125 0 -1.0625 0.25q-0.484375 0.234375 -0.828125 0.71875q-0.34375 0.46875 -0.53125 1.15625q-0.1875 0.671875 -0.1875 1.5625l0 0.390625q0 0.703125 0.1875 1.3125q0.203125 0.609375 0.578125 1.078125q0.375 0.46875 0.90625 0.734375q0.546875 0.265625 1.25 0.265625q0.890625 0 1.5 -0.359375q0.625 -0.375 1.09375 -0.984375l1.015625 0.8125q-0.3125 0.484375 -0.8125 0.921875q-0.484375 0.4375 -1.203125 0.71875q-0.71875 0.265625 -1.6875 0.265625zm7.486664 -8.5l0 8.3125l-1.6875 0l0 -9.859375l1.640625 0l0.046875 1.546875zm3.078125 -1.59375l0 1.5625q-0.21875 -0.046875 -0.40625 -0.0625q-0.1875 -0.015625 -0.421875 -0.015625q-0.578125 0 -1.03125 0.1875q-0.4375 0.1875 -0.75 0.515625q-0.3125 0.328125 -0.5 0.78125q-0.171875 0.4375 -0.21875 0.984375l-0.484375 0.265625q0 -0.890625 0.171875 -1.671875q0.1875 -0.78125 0.5625 -1.390625q0.375 -0.609375 0.953125 -0.9375q0.578125 -0.34375 1.375 -0.34375q0.1875 0 0.421875 0.046875q0.234375 0.03125 0.328125 0.078125z" fill-rule="nonzero"/><path fill="#c9daf8" d="m543.9869 254.24934l122.834656 0l0 40.661423l-122.834656 0z" fill-rule="evenodd"/><path fill="#000000" d="m560.90735 267.50006l0 14.0l-1.6875 0l0 -14.0l1.6875 0zm2.270874 9.1875l0 -0.21875q0 -1.0625 0.296875 -1.96875q0.3125 -0.921875 0.890625 -1.59375q0.59375 -0.6875 1.421875 -1.0625q0.828125 -0.375 1.859375 -0.375q1.03125 0 1.859375 0.375q0.84375 0.375 1.421875 1.0625q0.59375 0.671875 0.90625 1.59375q0.3125 0.90625 0.3125 1.96875l0 0.21875q0 1.0625 -0.3125 1.96875q-0.3125 0.90625 -0.90625 1.59375q-0.578125 0.671875 -1.40625 1.0625q-0.8125 0.375 -1.859375 0.375q-1.03125 0 -1.875 -0.375q-0.828125 -0.390625 -1.421875 -1.0625q-0.578125 -0.6875 -0.890625 -1.59375q-0.296875 -0.90625 -0.296875 -1.96875zm1.671875 -0.21875l0 0.21875q0 0.734375 0.171875 1.390625q0.1875 0.640625 0.53125 1.140625q0.359375 0.5 0.875 0.796875q0.53125 0.28125 1.234375 0.28125q0.6875 0 1.203125 -0.28125q0.53125 -0.296875 0.875 -0.796875q0.359375 -0.5 0.53125 -1.140625q0.171875 -0.65625 0.171875 -1.390625l0 -0.21875q0 -0.71875 -0.171875 -1.375q-0.171875 -0.65625 -0.53125 -1.15625q-0.34375 -0.515625 -0.875 -0.796875q-0.515625 -0.296875 -1.21875 -0.296875q-0.6875 0 -1.21875 0.296875q-0.515625 0.28125 -0.875 0.796875q-0.34375 0.5 -0.53125 1.15625q-0.171875 0.65625 -0.171875 1.375zm13.358643 3.828125q0.59375 0 1.09375 -0.234375q0.515625 -0.25 0.84375 -0.6875q0.328125 -0.4375 0.375 -0.984375l1.609375 0q-0.046875 0.875 -0.59375 1.625q-0.53125 0.75 -1.40625 1.21875q-0.875 0.453125 -1.921875 0.453125q-1.109375 0 -1.9375 -0.390625q-0.828125 -0.390625 -1.375 -1.078125q-0.53125 -0.6875 -0.8125 -1.578125q-0.265625 -0.890625 -0.265625 -1.875l0 -0.390625q0 -0.984375 0.265625 -1.875q0.28125 -0.890625 0.8125 -1.5625q0.546875 -0.6875 1.375 -1.078125q0.828125 -0.390625 1.9375 -0.390625q1.15625 0 2.015625 0.46875q0.859375 0.46875 1.359375 1.28125q0.5 0.796875 0.546875 1.8125l-1.609375 0q-0.046875 -0.609375 -0.34375 -1.09375q-0.28125 -0.5 -0.796875 -0.796875q-0.5 -0.296875 -1.171875 -0.296875q-0.78125 0 -1.3125 0.3125q-0.515625 0.296875 -0.828125 0.8125q-0.296875 0.515625 -0.4375 1.140625q-0.125 0.625 -0.125 1.265625l0 0.390625q0 0.640625 0.125 1.28125q0.125 0.625 0.421875 1.140625q0.3125 0.5 0.84375 0.8125q0.53125 0.296875 1.3125 0.296875zm11.624756 -0.484375l0 -5.078125q0 -0.578125 -0.234375 -1.0q-0.234375 -0.4375 -0.703125 -0.671875q-0.453125 -0.25 -1.140625 -0.25q-0.640625 0 -1.125 0.21875q-0.46875 0.21875 -0.734375 0.578125q-0.265625 0.359375 -0.265625 0.765625l-1.6875 0q0 -0.53125 0.265625 -1.046875q0.28125 -0.515625 0.796875 -0.9375q0.515625 -0.421875 1.234375 -0.671875q0.734375 -0.25 1.625 -0.25q1.0625 0 1.890625 0.359375q0.828125 0.359375 1.296875 1.09375q0.46875 0.734375 0.46875 1.84375l0 4.578125q0 0.5 0.078125 1.0625q0.09375 0.546875 0.265625 0.953125l0 0.140625l-1.75 0q-0.140625 -0.296875 -0.21875 -0.78125q-0.0625 -0.484375 -0.0625 -0.90625zm0.296875 -4.28125l0.015625 1.171875l-1.703125 0q-0.71875 0 -1.28125 0.125q-0.5625 0.109375 -0.953125 0.34375q-0.375 0.21875 -0.578125 0.5625q-0.203125 0.34375 -0.203125 0.796875q0 0.46875 0.203125 0.859375q0.21875 0.375 0.640625 0.59375q0.421875 0.21875 1.046875 0.21875q0.765625 0 1.359375 -0.328125q0.59375 -0.328125 0.9375 -0.796875q0.359375 -0.46875 0.390625 -0.921875l0.71875 0.8125q-0.0625 0.375 -0.359375 0.84375q-0.28125 0.46875 -0.75 0.890625q-0.46875 0.421875 -1.109375 0.703125q-0.640625 0.28125 -1.4375 0.28125q-1.0 0 -1.75 -0.390625q-0.75 -0.390625 -1.171875 -1.046875q-0.40625 -0.671875 -0.40625 -1.484375q0 -0.796875 0.296875 -1.40625q0.3125 -0.609375 0.890625 -1.015625q0.59375 -0.40625 1.40625 -0.609375q0.828125 -0.203125 1.828125 -0.203125l1.96875 0zm5.8667603 -8.03125l0 14.0l-1.6875 0l0 -14.0l1.6875 0zm13.539124 17.796875l0 -11.765625l0.15625 -1.890625l1.546875 0l0 13.65625l-1.703125 0zm-6.625 -8.609375l0 -0.203125q0 -1.125 0.265625 -2.046875q0.265625 -0.921875 0.765625 -1.578125q0.515625 -0.671875 1.234375 -1.03125q0.734375 -0.359375 1.671875 -0.359375q0.921875 0 1.625 0.328125q0.703125 0.3125 1.203125 0.9375q0.5 0.609375 0.78125 1.46875q0.296875 0.859375 0.40625 1.953125l0 0.84375q-0.09375 1.078125 -0.390625 1.953125q-0.28125 0.859375 -0.78125 1.46875q-0.5 0.609375 -1.21875 0.9375q-0.703125 0.328125 -1.65625 0.328125q-0.90625 0 -1.640625 -0.375q-0.71875 -0.375 -1.21875 -1.046875q-0.5 -0.671875 -0.78125 -1.59375q-0.265625 -0.921875 -0.265625 -1.984375zm1.703125 -0.203125l0 0.203125q0 0.734375 0.15625 1.390625q0.15625 0.640625 0.46875 1.140625q0.328125 0.5 0.828125 0.796875q0.5 0.28125 1.171875 0.28125q0.84375 0 1.40625 -0.359375q0.5625 -0.375 0.890625 -0.96875q0.34375 -0.59375 0.515625 -1.28125l0 -2.1875q-0.09375 -0.5 -0.3125 -0.96875q-0.203125 -0.484375 -0.546875 -0.859375q-0.328125 -0.375 -0.8125 -0.59375q-0.484375 -0.234375 -1.125 -0.234375q-0.6875 0 -1.1875 0.296875q-0.5 0.28125 -0.828125 0.796875q-0.3125 0.5 -0.46875 1.15625q-0.15625 0.65625 -0.15625 1.390625zm15.353455 2.734375l0 -7.578125l1.703125 0l0 9.859375l-1.625 0l-0.078125 -2.28125zm0.328125 -2.078125l0.6875 -0.015625q0 0.984375 -0.203125 1.828125q-0.203125 0.828125 -0.65625 1.4375q-0.453125 0.609375 -1.203125 0.953125q-0.734375 0.34375 -1.78125 0.34375q-0.71875 0 -1.328125 -0.203125q-0.59375 -0.21875 -1.015625 -0.65625q-0.421875 -0.4375 -0.65625 -1.140625q-0.234375 -0.703125 -0.234375 -1.6875l0 -6.359375l1.6875 0l0 6.375q0 0.671875 0.140625 1.109375q0.15625 0.421875 0.40625 0.671875q0.265625 0.25 0.59375 0.359375q0.328125 0.09375 0.671875 0.09375q1.078125 0 1.703125 -0.40625q0.625 -0.421875 0.90625 -1.125q0.28125 -0.703125 0.28125 -1.578125zm8.019043 4.546875q-1.03125 0 -1.875 -0.34375q-0.828125 -0.359375 -1.421875 -1.0q-0.59375 -0.640625 -0.921875 -1.515625q-0.3125 -0.875 -0.3125 -1.90625l0 -0.390625q0 -1.203125 0.359375 -2.140625q0.359375 -0.9375 0.96875 -1.59375q0.609375 -0.65625 1.375 -0.984375q0.78125 -0.34375 1.609375 -0.34375q1.0625 0 1.828125 0.359375q0.765625 0.359375 1.25 1.015625q0.5 0.65625 0.734375 1.53125q0.234375 0.875 0.234375 1.921875l0 0.75l-7.359375 0l0 -1.375l5.6875 0l0 -0.125q-0.046875 -0.65625 -0.28125 -1.28125q-0.234375 -0.625 -0.734375 -1.015625q-0.5 -0.40625 -1.359375 -0.40625q-0.578125 0 -1.0625 0.25q-0.484375 0.234375 -0.828125 0.71875q-0.34375 0.46875 -0.53125 1.15625q-0.1875 0.671875 -0.1875 1.5625l0 0.390625q0 0.703125 0.1875 1.3125q0.203125 0.609375 0.578125 1.078125q0.375 0.46875 0.90625 0.734375q0.546875 0.265625 1.25 0.265625q0.890625 0 1.5 -0.359375q0.625 -0.375 1.09375 -0.984375l1.015625 0.8125q-0.3125 0.484375 -0.8125 0.921875q-0.484375 0.4375 -1.203125 0.71875q-0.71875 0.265625 -1.6875 0.265625zm11.830383 -2.46875l0 -7.578125l1.703125 0l0 9.859375l-1.625 0l-0.078125 -2.28125zm0.328125 -2.078125l0.6875 -0.015625q0 0.984375 -0.203125 1.828125q-0.203125 0.828125 -0.65625 1.4375q-0.453125 0.609375 -1.203125 0.953125q-0.734375 0.34375 -1.78125 0.34375q-0.71875 0 -1.328125 -0.203125q-0.59375 -0.21875 -1.015625 -0.65625q-0.421875 -0.4375 -0.65625 -1.140625q-0.234375 -0.703125 -0.234375 -1.6875l0 -6.359375l1.6875 0l0 6.375q0 0.671875 0.140625 1.109375q0.15625 0.421875 0.40625 0.671875q0.265625 0.25 0.59375 0.359375q0.328125 0.09375 0.671875 0.09375q1.078125 0 1.703125 -0.40625q0.625 -0.421875 0.90625 -1.125q0.28125 -0.703125 0.28125 -1.578125zm8.018982 4.546875q-1.03125 0 -1.875 -0.34375q-0.828125 -0.359375 -1.421875 -1.0q-0.59375 -0.640625 -0.921875 -1.515625q-0.3125 -0.875 -0.3125 -1.90625l0 -0.390625q0 -1.203125 0.359375 -2.140625q0.359375 -0.9375 0.96875 -1.59375q0.609375 -0.65625 1.375 -0.984375q0.78125 -0.34375 1.609375 -0.34375q1.0625 0 1.828125 0.359375q0.765625 0.359375 1.25 1.015625q0.5 0.65625 0.734375 1.53125q0.234375 0.875 0.234375 1.921875l0 0.75l-7.359375 0l0 -1.375l5.6875 0l0 -0.125q-0.046875 -0.65625 -0.28125 -1.28125q-0.234375 -0.625 -0.734375 -1.015625q-0.5 -0.40625 -1.359375 -0.40625q-0.578125 0 -1.0625 0.25q-0.484375 0.234375 -0.828125 0.71875q-0.34375 0.46875 -0.53125 1.15625q-0.1875 0.671875 -0.1875 1.5625l0 0.390625q0 0.703125 0.1875 1.3125q0.203125 0.609375 0.578125 1.078125q0.375 0.46875 0.90625 0.734375q0.546875 0.265625 1.25 0.265625q0.890625 0 1.5 -0.359375q0.625 -0.375 1.09375 -0.984375l1.015625 0.8125q-0.3125 0.484375 -0.8125 0.921875q-0.484375 0.4375 -1.203125 0.71875q-0.71875 0.265625 -1.6875 0.265625z" fill-rule="nonzero"/><path fill="#c9daf8" d="m747.3832 254.24934l171.52759 0l0 40.661423l-171.52759 0z" fill-rule="evenodd"/><path fill="#000000" d="m784.68866 277.9532l1.609375 0.21875q-0.265625 1.65625 -1.359375 2.609375q-1.078125 0.9375 -2.671875 0.9375q-1.984375 0 -3.1875 -1.296875q-1.203125 -1.296875 -1.203125 -3.71875q0 -1.578125 0.515625 -2.75q0.515625 -1.171875 1.578125 -1.75q1.0625 -0.59375 2.3125 -0.59375q1.578125 0 2.578125 0.796875q1.0 0.796875 1.28125 2.265625l-1.59375 0.234375q-0.234375 -0.96875 -0.8125 -1.453125q-0.578125 -0.5 -1.390625 -0.5q-1.234375 0 -2.015625 0.890625q-0.78125 0.890625 -0.78125 2.8125q0 1.953125 0.75 2.84375q0.75 0.875 1.953125 0.875q0.96875 0 1.609375 -0.59375q0.65625 -0.59375 0.828125 -1.828125zm2.96875 3.546875l0 -13.359375l1.640625 0l0 13.359375l-1.640625 0zm10.519836 0l0 -1.421875q-1.125 1.640625 -3.0625 1.640625q-0.859375 0 -1.609375 -0.328125q-0.734375 -0.328125 -1.09375 -0.828125q-0.359375 -0.5 -0.5 -1.21875q-0.109375 -0.46875 -0.109375 -1.53125l0 -5.984375l1.640625 0l0 5.359375q0 1.28125 0.109375 1.734375q0.15625 0.640625 0.65625 1.015625q0.5 0.375 1.234375 0.375q0.734375 0 1.375 -0.375q0.65625 -0.390625 0.921875 -1.03125q0.265625 -0.65625 0.265625 -1.890625l0 -5.1875l1.640625 0l0 9.671875l-1.46875 0zm3.3913574 -2.890625l1.625 -0.25q0.125 0.96875 0.75 1.5q0.625 0.515625 1.75 0.515625q1.125 0 1.671875 -0.453125q0.546875 -0.46875 0.546875 -1.09375q0 -0.546875 -0.484375 -0.875q-0.328125 -0.21875 -1.671875 -0.546875q-1.8125 -0.46875 -2.515625 -0.796875q-0.6875 -0.328125 -1.046875 -0.90625q-0.359375 -0.59375 -0.359375 -1.3125q0 -0.640625 0.296875 -1.1875q0.296875 -0.5625 0.8125 -0.921875q0.375 -0.28125 1.03125 -0.46875q0.671875 -0.203125 1.421875 -0.203125q1.140625 0 2.0 0.328125q0.859375 0.328125 1.265625 0.890625q0.421875 0.5625 0.578125 1.5l-1.609375 0.21875q-0.109375 -0.75 -0.640625 -1.171875q-0.515625 -0.421875 -1.46875 -0.421875q-1.140625 0 -1.625 0.375q-0.46875 0.375 -0.46875 0.875q0 0.3125 0.1875 0.578125q0.203125 0.265625 0.640625 0.4375q0.234375 0.09375 1.4375 0.421875q1.75 0.453125 2.4375 0.75q0.6875 0.296875 1.078125 0.859375q0.390625 0.5625 0.390625 1.40625q0 0.828125 -0.484375 1.546875q-0.46875 0.71875 -1.375 1.125q-0.90625 0.390625 -2.046875 0.390625q-1.875 0 -2.875 -0.78125q-0.984375 -0.78125 -1.25 -2.328125zm13.5625 1.421875l0.234375 1.453125q-0.6875 0.140625 -1.234375 0.140625q-0.890625 0 -1.390625 -0.28125q-0.484375 -0.28125 -0.6875 -0.734375q-0.203125 -0.46875 -0.203125 -1.9375l0 -5.578125l-1.203125 0l0 -1.265625l1.203125 0l0 -2.390625l1.625 -0.984375l0 3.375l1.65625 0l0 1.265625l-1.65625 0l0 5.671875q0 0.6875 0.078125 0.890625q0.09375 0.203125 0.28125 0.328125q0.203125 0.109375 0.578125 0.109375q0.265625 0 0.71875 -0.0625zm8.230164 -1.640625l1.6875 0.203125q-0.40625 1.484375 -1.484375 2.3125q-1.078125 0.8125 -2.765625 0.8125q-2.125 0 -3.375 -1.296875q-1.234375 -1.3125 -1.234375 -3.671875q0 -2.453125 1.25 -3.796875q1.265625 -1.34375 3.265625 -1.34375q1.9375 0 3.15625 1.328125q1.234375 1.3125 1.234375 3.703125q0 0.15625 0 0.4375l-7.21875 0q0.09375 1.59375 0.90625 2.453125q0.8125 0.84375 2.015625 0.84375q0.90625 0 1.546875 -0.46875q0.640625 -0.484375 1.015625 -1.515625zm-5.390625 -2.65625l5.40625 0q-0.109375 -1.21875 -0.625 -1.828125q-0.78125 -0.953125 -2.03125 -0.953125q-1.125 0 -1.90625 0.765625q-0.765625 0.75 -0.84375 2.015625zm9.125732 5.765625l0 -9.671875l1.46875 0l0 1.46875q0.5625 -1.03125 1.03125 -1.359375q0.484375 -0.328125 1.0625 -0.328125q0.828125 0 1.6875 0.53125l-0.5625 1.515625q-0.609375 -0.359375 -1.203125 -0.359375q-0.546875 0 -0.96875 0.328125q-0.421875 0.328125 -0.609375 0.890625q-0.28125 0.875 -0.28125 1.921875l0 5.0625l-1.625 0zm17.56781 3.703125l0 -4.734375q-0.375 0.546875 -1.0625 0.90625q-0.6875 0.34375 -1.46875 0.34375q-1.71875 0 -2.96875 -1.375q-1.234375 -1.375 -1.234375 -3.765625q0 -1.46875 0.5 -2.625q0.515625 -1.15625 1.46875 -1.75q0.96875 -0.59375 2.109375 -0.59375q1.796875 0 2.828125 1.515625l0 -1.296875l1.46875 0l0 13.375l-1.640625 0zm-5.046875 -8.5625q0 1.859375 0.78125 2.796875q0.78125 0.9375 1.875 0.9375q1.046875 0 1.796875 -0.890625q0.765625 -0.890625 0.765625 -2.703125q0 -1.9375 -0.796875 -2.90625q-0.796875 -0.96875 -1.875 -0.96875q-1.0625 0 -1.8125 0.90625q-0.734375 0.90625 -0.734375 2.828125zm15.594482 4.859375l0 -1.421875q-1.125 1.640625 -3.0625 1.640625q-0.859375 0 -1.609375 -0.328125q-0.734375 -0.328125 -1.09375 -0.828125q-0.359375 -0.5 -0.5 -1.21875q-0.109375 -0.46875 -0.109375 -1.53125l0 -5.984375l1.640625 0l0 5.359375q0 1.28125 0.109375 1.734375q0.15625 0.640625 0.65625 1.015625q0.5 0.375 1.234375 0.375q0.734375 0 1.375 -0.375q0.65625 -0.390625 0.921875 -1.03125q0.265625 -0.65625 0.265625 -1.890625l0 -5.1875l1.640625 0l0 9.671875l-1.46875 0zm10.672607 -3.109375l1.6875 0.203125q-0.40625 1.484375 -1.484375 2.3125q-1.078125 0.8125 -2.765625 0.8125q-2.125 0 -3.375 -1.296875q-1.234375 -1.3125 -1.234375 -3.671875q0 -2.453125 1.25 -3.796875q1.265625 -1.34375 3.265625 -1.34375q1.9375 0 3.15625 1.328125q1.234375 1.3125 1.234375 3.703125q0 0.15625 0 0.4375l-7.21875 0q0.09375 1.59375 0.90625 2.453125q0.8125 0.84375 2.015625 0.84375q0.90625 0 1.546875 -0.46875q0.640625 -0.484375 1.015625 -1.515625zm-5.390625 -2.65625l5.40625 0q-0.109375 -1.21875 -0.625 -1.828125q-0.78125 -0.953125 -2.03125 -0.953125q-1.125 0 -1.90625 0.765625q-0.765625 0.75 -0.84375 2.015625zm15.469482 5.765625l0 -1.421875q-1.125 1.640625 -3.0625 1.640625q-0.859375 0 -1.609375 -0.328125q-0.734375 -0.328125 -1.09375 -0.828125q-0.359375 -0.5 -0.5 -1.21875q-0.109375 -0.46875 -0.109375 -1.53125l0 -5.984375l1.640625 0l0 5.359375q0 1.28125 0.109375 1.734375q0.15625 0.640625 0.65625 1.015625q0.5 0.375 1.234375 0.375q0.734375 0 1.375 -0.375q0.65625 -0.390625 0.921875 -1.03125q0.265625 -0.65625 0.265625 -1.890625l0 -5.1875l1.640625 0l0 9.671875l-1.46875 0zm10.672546 -3.109375l1.6875 0.203125q-0.40625 1.484375 -1.484375 2.3125q-1.078125 0.8125 -2.765625 0.8125q-2.125 0 -3.375 -1.296875q-1.234375 -1.3125 -1.234375 -3.671875q0 -2.453125 1.25 -3.796875q1.265625 -1.34375 3.265625 -1.34375q1.9375 0 3.15625 1.328125q1.234375 1.3125 1.234375 3.703125q0 0.15625 0 0.4375l-7.21875 0q0.09375 1.59375 0.90625 2.453125q0.8125 0.84375 2.015625 0.84375q0.90625 0 1.546875 -0.46875q0.640625 -0.484375 1.015625 -1.515625zm-5.390625 -2.65625l5.40625 0q-0.109375 -1.21875 -0.625 -1.828125q-0.78125 -0.953125 -2.03125 -0.953125q-1.125 0 -1.90625 0.765625q-0.765625 0.75 -0.84375 2.015625z" fill-rule="nonzero"/><path fill="#000000" fill-opacity="0.0" d="m508.01312 160.17323l207.46454 0l0 38.771652l-207.46454 0z" fill-rule="evenodd"/><path fill="#595959" d="m519.56 177.87698l0 6.65625l-1.4375 0l0 -8.453125l1.359375 0l0.078125 1.796875zm-0.34375 2.109375l-0.59375 -0.03125q0 -0.859375 0.25 -1.59375q0.25 -0.75 0.703125 -1.296875q0.453125 -0.546875 1.078125 -0.84375q0.640625 -0.296875 1.40625 -0.296875q0.625 0 1.125 0.171875q0.5 0.15625 0.84375 0.53125q0.359375 0.359375 0.546875 0.953125q0.1875 0.578125 0.1875 1.40625l0 5.546875l-1.453125 0l0 -5.5625q0 -0.65625 -0.203125 -1.0625q-0.1875 -0.40625 -0.5625 -0.578125q-0.375 -0.1875 -0.921875 -0.1875q-0.53125 0 -0.984375 0.234375q-0.4375 0.21875 -0.75 0.625q-0.3125 0.390625 -0.5 0.90625q-0.171875 0.5 -0.171875 1.078125zm12.7265625 3.09375l0 -4.34375q0 -0.5 -0.203125 -0.875q-0.203125 -0.375 -0.609375 -0.578125q-0.390625 -0.203125 -0.96875 -0.203125q-0.546875 0 -0.96875 0.1875q-0.40625 0.1875 -0.640625 0.5q-0.21875 0.296875 -0.21875 0.65625l-1.453125 0q0 -0.453125 0.234375 -0.890625q0.234375 -0.453125 0.671875 -0.8125q0.453125 -0.375 1.0625 -0.578125q0.625 -0.21875 1.390625 -0.21875q0.921875 0 1.625 0.3125q0.71875 0.3125 1.109375 0.9375q0.40625 0.625 0.40625 1.578125l0 3.9375q0 0.421875 0.078125 0.90625q0.078125 0.46875 0.21875 0.8125l0 0.125l-1.5 0q-0.109375 -0.25 -0.171875 -0.671875q-0.0625 -0.421875 -0.0625 -0.78125zm0.25 -3.671875l0.015625 1.015625l-1.46875 0q-0.609375 0 -1.09375 0.09375q-0.484375 0.09375 -0.8125 0.296875q-0.328125 0.1875 -0.5 0.484375q-0.171875 0.296875 -0.171875 0.6875q0 0.390625 0.171875 0.71875q0.1875 0.328125 0.546875 0.53125q0.359375 0.1875 0.890625 0.1875q0.671875 0 1.171875 -0.28125q0.515625 -0.28125 0.8125 -0.6875q0.296875 -0.40625 0.328125 -0.796875l0.609375 0.703125q-0.046875 0.328125 -0.296875 0.734375q-0.234375 0.390625 -0.640625 0.75q-0.40625 0.359375 -0.953125 0.609375q-0.546875 0.234375 -1.234375 0.234375q-0.859375 0 -1.515625 -0.328125q-0.640625 -0.34375 -1.0 -0.90625q-0.34375 -0.578125 -0.34375 -1.28125q0 -0.671875 0.265625 -1.1875q0.265625 -0.53125 0.765625 -0.875q0.5 -0.34375 1.203125 -0.515625q0.703125 -0.1875 1.5625 -0.1875l1.6875 0zm4.90625 -1.65625l0 6.78125l-1.453125 0l0 -8.453125l1.375 0l0.078125 1.671875zm-0.296875 2.234375l-0.671875 -0.03125q0 -0.859375 0.21875 -1.59375q0.21875 -0.75 0.640625 -1.296875q0.4375 -0.546875 1.078125 -0.84375q0.640625 -0.296875 1.484375 -0.296875q0.59375 0 1.09375 0.171875q0.5 0.15625 0.859375 0.515625q0.375 0.359375 0.578125 0.921875q0.203125 0.5625 0.203125 1.359375l0 5.640625l-1.4375 0l0 -5.5625q0 -0.671875 -0.234375 -1.0625q-0.21875 -0.40625 -0.625 -0.578125q-0.40625 -0.1875 -0.953125 -0.1875q-0.640625 0 -1.078125 0.234375q-0.421875 0.21875 -0.6875 0.625q-0.25 0.390625 -0.359375 0.90625q-0.109375 0.5 -0.109375 1.078125zm5.46875 -0.796875l-0.96875 0.296875q0.015625 -0.703125 0.234375 -1.34375q0.21875 -0.640625 0.640625 -1.140625q0.4375 -0.5 1.0625 -0.78125q0.625 -0.296875 1.421875 -0.296875q0.6875 0 1.203125 0.1875q0.53125 0.171875 0.890625 0.546875q0.375 0.359375 0.5625 0.9375q0.1875 0.578125 0.1875 1.375l0 5.5625l-1.453125 0l0 -5.578125q0 -0.703125 -0.234375 -1.09375q-0.21875 -0.40625 -0.625 -0.5625q-0.390625 -0.15625 -0.953125 -0.15625q-0.46875 0 -0.84375 0.171875q-0.359375 0.15625 -0.609375 0.4375q-0.25 0.28125 -0.390625 0.65625q-0.125 0.359375 -0.125 0.78125zm10.921875 5.5q-0.875 0 -1.59375 -0.296875q-0.71875 -0.3125 -1.234375 -0.859375q-0.5 -0.546875 -0.78125 -1.296875q-0.265625 -0.75 -0.265625 -1.640625l0 -0.328125q0 -1.03125 0.296875 -1.828125q0.3125 -0.8125 0.828125 -1.375q0.53125 -0.5625 1.1875 -0.84375q0.671875 -0.296875 1.375 -0.296875q0.90625 0 1.5625 0.3125q0.671875 0.3125 1.09375 0.875q0.421875 0.546875 0.625 1.3125q0.203125 0.75 0.203125 1.640625l0 0.640625l-6.3125 0l0 -1.171875l4.859375 0l0 -0.109375q-0.03125 -0.5625 -0.234375 -1.09375q-0.1875 -0.53125 -0.625 -0.875q-0.421875 -0.34375 -1.171875 -0.34375q-0.484375 0 -0.90625 0.203125q-0.40625 0.203125 -0.703125 0.609375q-0.296875 0.40625 -0.46875 1.0q-0.15625 0.578125 -0.15625 1.34375l0 0.328125q0 0.609375 0.15625 1.140625q0.171875 0.515625 0.5 0.921875q0.328125 0.390625 0.78125 0.625q0.46875 0.21875 1.0625 0.21875q0.765625 0 1.296875 -0.3125q0.53125 -0.3125 0.9375 -0.828125l0.875 0.6875q-0.28125 0.421875 -0.703125 0.796875q-0.421875 0.375 -1.03125 0.609375q-0.609375 0.234375 -1.453125 0.234375zm9.90625 -2.40625q0 -0.3125 -0.140625 -0.578125q-0.140625 -0.265625 -0.5625 -0.484375q-0.40625 -0.234375 -1.25 -0.390625q-0.703125 -0.15625 -1.265625 -0.359375q-0.5625 -0.203125 -0.96875 -0.484375q-0.390625 -0.296875 -0.609375 -0.6875q-0.203125 -0.390625 -0.203125 -0.90625q0 -0.5 0.21875 -0.9375q0.234375 -0.453125 0.640625 -0.796875q0.40625 -0.34375 0.984375 -0.53125q0.578125 -0.203125 1.296875 -0.203125q1.015625 0 1.734375 0.359375q0.71875 0.359375 1.09375 0.953125q0.390625 0.59375 0.390625 1.328125l-1.453125 0q0 -0.359375 -0.203125 -0.6875q-0.203125 -0.328125 -0.609375 -0.546875q-0.390625 -0.21875 -0.953125 -0.21875q-0.609375 0 -0.984375 0.1875q-0.359375 0.171875 -0.53125 0.453125q-0.171875 0.28125 -0.171875 0.59375q0 0.234375 0.078125 0.421875q0.09375 0.1875 0.296875 0.34375q0.21875 0.140625 0.59375 0.28125q0.390625 0.125 0.984375 0.265625q1.03125 0.234375 1.703125 0.5625q0.671875 0.328125 1.0 0.8125q0.328125 0.46875 0.328125 1.140625q0 0.5625 -0.234375 1.03125q-0.21875 0.453125 -0.65625 0.78125q-0.4375 0.328125 -1.03125 0.515625q-0.59375 0.1875 -1.34375 0.1875q-1.109375 0 -1.890625 -0.390625q-0.765625 -0.40625 -1.171875 -1.03125q-0.390625 -0.640625 -0.390625 -1.34375l1.453125 0q0.03125 0.59375 0.34375 0.9375q0.3125 0.34375 0.765625 0.5q0.453125 0.140625 0.890625 0.140625q0.59375 0 1.0 -0.15625q0.40625 -0.15625 0.609375 -0.421875q0.21875 -0.28125 0.21875 -0.640625zm4.7734375 -4.578125l0 10.078125l-1.453125 0l0 -11.703125l1.328125 0l0.125 1.625zm5.703125 2.53125l0 0.15625q0 0.921875 -0.21875 1.71875q-0.21875 0.78125 -0.640625 1.359375q-0.421875 0.578125 -1.03125 0.90625q-0.609375 0.3125 -1.390625 0.3125q-0.8125 0 -1.4375 -0.265625q-0.609375 -0.265625 -1.046875 -0.765625q-0.421875 -0.515625 -0.671875 -1.21875q-0.25 -0.71875 -0.34375 -1.609375l0 -0.875q0.09375 -0.9375 0.34375 -1.671875q0.265625 -0.75 0.6875 -1.28125q0.421875 -0.53125 1.03125 -0.796875q0.609375 -0.28125 1.40625 -0.28125q0.796875 0 1.40625 0.3125q0.625 0.296875 1.046875 0.875q0.421875 0.5625 0.640625 1.359375q0.21875 0.796875 0.21875 1.765625zm-1.453125 0.15625l0 -0.15625q0 -0.640625 -0.140625 -1.1875q-0.125 -0.5625 -0.40625 -0.984375q-0.28125 -0.4375 -0.71875 -0.671875q-0.421875 -0.25 -1.015625 -0.25q-0.546875 0 -0.953125 0.1875q-0.390625 0.1875 -0.671875 0.5q-0.28125 0.3125 -0.46875 0.71875q-0.171875 0.40625 -0.25 0.828125l0 2.03125q0.15625 0.546875 0.4375 1.03125q0.28125 0.46875 0.75 0.765625q0.46875 0.296875 1.171875 0.296875q0.59375 0 1.015625 -0.25q0.421875 -0.25 0.703125 -0.671875q0.28125 -0.4375 0.40625 -0.984375q0.140625 -0.5625 0.140625 -1.203125zm8.28125 2.6875l0 -4.34375q0 -0.5 -0.203125 -0.875q-0.203125 -0.375 -0.609375 -0.578125q-0.390625 -0.203125 -0.96875 -0.203125q-0.546875 0 -0.96875 0.1875q-0.40625 0.1875 -0.640625 0.5q-0.21875 0.296875 -0.21875 0.65625l-1.453125 0q0 -0.453125 0.234375 -0.890625q0.234375 -0.453125 0.671875 -0.8125q0.453125 -0.375 1.0625 -0.578125q0.625 -0.21875 1.390625 -0.21875q0.921875 0 1.625 0.3125q0.71875 0.3125 1.109375 0.9375q0.40625 0.625 0.40625 1.578125l0 3.9375q0 0.421875 0.078125 0.90625q0.078125 0.46875 0.21875 0.8125l0 0.125l-1.5 0q-0.109375 -0.25 -0.171875 -0.671875q-0.0625 -0.421875 -0.0625 -0.78125zm0.25 -3.671875l0.015625 1.015625l-1.46875 0q-0.609375 0 -1.09375 0.09375q-0.484375 0.09375 -0.8125 0.296875q-0.328125 0.1875 -0.5 0.484375q-0.171875 0.296875 -0.171875 0.6875q0 0.390625 0.171875 0.71875q0.1875 0.328125 0.546875 0.53125q0.359375 0.1875 0.890625 0.1875q0.671875 0 1.171875 -0.28125q0.515625 -0.28125 0.8125 -0.6875q0.296875 -0.40625 0.328125 -0.796875l0.609375 0.703125q-0.046875 0.328125 -0.296875 0.734375q-0.234375 0.390625 -0.640625 0.75q-0.40625 0.359375 -0.953125 0.609375q-0.546875 0.234375 -1.234375 0.234375q-0.859375 0 -1.515625 -0.328125q-0.640625 -0.34375 -1.0 -0.90625q-0.34375 -0.578125 -0.34375 -1.28125q0 -0.671875 0.265625 -1.1875q0.265625 -0.53125 0.765625 -0.875q0.5 -0.34375 1.203125 -0.515625q0.703125 -0.1875 1.5625 -0.1875l1.6875 0zm6.84375 4.09375q0.515625 0 0.953125 -0.203125q0.4375 -0.21875 0.71875 -0.59375q0.28125 -0.375 0.328125 -0.84375l1.375 0q-0.046875 0.75 -0.515625 1.390625q-0.453125 0.640625 -1.203125 1.046875q-0.75 0.390625 -1.65625 0.390625q-0.953125 0 -1.65625 -0.328125q-0.703125 -0.34375 -1.171875 -0.921875q-0.46875 -0.59375 -0.703125 -1.359375q-0.21875 -0.765625 -0.21875 -1.609375l0 -0.328125q0 -0.859375 0.21875 -1.609375q0.234375 -0.765625 0.703125 -1.34375q0.46875 -0.59375 1.171875 -0.921875q0.703125 -0.34375 1.65625 -0.34375q1.0 0 1.734375 0.40625q0.75 0.390625 1.171875 1.09375q0.421875 0.6875 0.46875 1.5625l-1.375 0q-0.046875 -0.53125 -0.296875 -0.953125q-0.25 -0.421875 -0.6875 -0.671875q-0.4375 -0.25 -1.015625 -0.25q-0.65625 0 -1.109375 0.265625q-0.453125 0.25 -0.71875 0.703125q-0.25 0.4375 -0.375 0.96875q-0.109375 0.53125 -0.109375 1.09375l0 0.328125q0 0.546875 0.109375 1.09375q0.109375 0.53125 0.375 0.96875q0.265625 0.4375 0.703125 0.703125q0.453125 0.265625 1.125 0.265625zm8.5 1.1875q-0.875 0 -1.59375 -0.296875q-0.71875 -0.3125 -1.234375 -0.859375q-0.5 -0.546875 -0.78125 -1.296875q-0.265625 -0.75 -0.265625 -1.640625l0 -0.328125q0 -1.03125 0.296875 -1.828125q0.3125 -0.8125 0.828125 -1.375q0.53125 -0.5625 1.1875 -0.84375q0.671875 -0.296875 1.375 -0.296875q0.90625 0 1.5625 0.3125q0.671875 0.3125 1.09375 0.875q0.421875 0.546875 0.625 1.3125q0.203125 0.75 0.203125 1.640625l0 0.640625l-6.3125 0l0 -1.171875l4.859375 0l0 -0.109375q-0.03125 -0.5625 -0.234375 -1.09375q-0.1875 -0.53125 -0.625 -0.875q-0.421875 -0.34375 -1.171875 -0.34375q-0.484375 0 -0.90625 0.203125q-0.40625 0.203125 -0.703125 0.609375q-0.296875 0.40625 -0.46875 1.0q-0.15625 0.578125 -0.15625 1.34375l0 0.328125q0 0.609375 0.15625 1.140625q0.171875 0.515625 0.5 0.921875q0.328125 0.390625 0.78125 0.625q0.46875 0.21875 1.0625 0.21875q0.765625 0 1.296875 -0.3125q0.53125 -0.3125 0.9375 -0.828125l0.875 0.6875q-0.28125 0.421875 -0.703125 0.796875q-0.421875 0.375 -1.03125 0.609375q-0.609375 0.234375 -1.453125 0.234375z" fill-rule="nonzero"/><path fill="#c9daf8" d="m100.61942 252.27821l0 0c0 -16.116272 13.064827 -29.181107 29.181099 -29.181107l0 0c7.739319 0 15.161636 3.0744324 20.634155 8.546951c5.472519 5.472519 8.546951 12.894852 8.546951 20.634155l0 0c0 16.116287 -13.064819 29.181107 -29.181107 29.181107l0 0c-16.116272 0 -29.181099 -13.064819 -29.181099 -29.181107z" fill-rule="evenodd"/><path fill="#c9daf8" d="m83.13911 326.063l9.692917 -38.771637l73.937004 0l9.692917 38.771637z" fill-rule="evenodd"/><path fill="#000000" fill-opacity="0.0" d="m666.82153 274.58005l80.566895 0" fill-rule="evenodd"/><path stroke="#595959" stroke-width="2.0" stroke-linejoin="round" stroke-linecap="butt" d="m666.82153 274.58005l68.566895 0" fill-rule="evenodd"/><path fill="#595959" stroke="#595959" stroke-width="2.0" stroke-linecap="butt" d="m735.3884 277.8835l9.076233 -3.3034668l-9.076233 -3.3034668z" fill-rule="evenodd"/><path fill="#000000" fill-opacity="0.0" d="m273.28217 274.58005l-86.55119 0.03149414" fill-rule="evenodd"/><path stroke="#595959" stroke-width="2.0" stroke-linejoin="round" stroke-linecap="butt" d="m261.28217 274.5844l-74.55119 0.027130127" fill-rule="evenodd"/><path fill="#595959" stroke="#595959" stroke-width="2.0" stroke-linecap="butt" d="m261.28336 277.88788l9.074982 -3.3067627l-9.077393 -3.300171z" fill-rule="evenodd"/><path fill="#000000" fill-opacity="0.0" d="m782.00525 146.56693l156.0 0l0 38.771652l-156.0 0z" fill-rule="evenodd"/><path fill="#595959" d="m797.0365 168.67693q0 -0.3125 -0.140625 -0.578125q-0.140625 -0.265625 -0.5625 -0.484375q-0.40625 -0.234375 -1.25 -0.390625q-0.703125 -0.15625 -1.265625 -0.359375q-0.5625 -0.203125 -0.96875 -0.484375q-0.390625 -0.296875 -0.609375 -0.6875q-0.203125 -0.390625 -0.203125 -0.90625q0 -0.5 0.21875 -0.9375q0.234375 -0.453125 0.640625 -0.796875q0.40625 -0.34375 0.984375 -0.53125q0.578125 -0.203125 1.296875 -0.203125q1.015625 0 1.734375 0.359375q0.71875 0.359375 1.09375 0.953125q0.390625 0.59375 0.390625 1.328125l-1.453125 0q0 -0.359375 -0.203125 -0.6875q-0.203125 -0.328125 -0.609375 -0.546875q-0.390625 -0.21875 -0.953125 -0.21875q-0.609375 0 -0.984375 0.1875q-0.359375 0.171875 -0.53125 0.453125q-0.171875 0.28125 -0.171875 0.59375q0 0.234375 0.078125 0.421875q0.09375 0.1875 0.296875 0.34375q0.21875 0.140625 0.59375 0.28125q0.390625 0.125 0.984375 0.265625q1.03125 0.234375 1.703125 0.5625q0.671875 0.328125 1.0 0.8125q0.328125 0.46875 0.328125 1.140625q0 0.5625 -0.234375 1.03125q-0.21875 0.453125 -0.65625 0.78125q-0.4375 0.328125 -1.03125 0.515625q-0.59375 0.1875 -1.34375 0.1875q-1.109375 0 -1.890625 -0.390625q-0.765625 -0.40625 -1.171875 -1.03125q-0.390625 -0.640625 -0.390625 -1.34375l1.453125 0q0.03125 0.59375 0.34375 0.9375q0.3125 0.34375 0.765625 0.5q0.453125 0.140625 0.890625 0.140625q0.59375 0 1.0 -0.15625q0.40625 -0.15625 0.609375 -0.421875q0.21875 -0.28125 0.21875 -0.640625zm4.7734375 -9.75l0 12.0l-1.4375 0l0 -12.0l1.4375 0zm-0.34375 7.453125l-0.59375 -0.03125q0 -0.859375 0.25 -1.59375q0.25 -0.75 0.703125 -1.296875q0.453125 -0.546875 1.078125 -0.84375q0.640625 -0.296875 1.40625 -0.296875q0.625 0 1.125 0.171875q0.5 0.15625 0.84375 0.53125q0.359375 0.359375 0.546875 0.953125q0.1875 0.578125 0.1875 1.40625l0 5.546875l-1.453125 0l0 -5.5625q0 -0.65625 -0.203125 -1.0625q-0.1875 -0.40625 -0.5625 -0.578125q-0.375 -0.1875 -0.921875 -0.1875q-0.53125 0 -0.984375 0.234375q-0.4375 0.21875 -0.75 0.625q-0.3125 0.390625 -0.5 0.90625q-0.171875 0.5 -0.171875 1.078125zm12.703125 3.09375l0 -4.34375q0 -0.5 -0.203125 -0.875q-0.203125 -0.375 -0.609375 -0.578125q-0.390625 -0.203125 -0.96875 -0.203125q-0.546875 0 -0.96875 0.1875q-0.40625 0.1875 -0.640625 0.5q-0.21875 0.296875 -0.21875 0.65625l-1.453125 0q0 -0.453125 0.234375 -0.890625q0.234375 -0.453125 0.671875 -0.8125q0.453125 -0.375 1.0625 -0.578125q0.625 -0.21875 1.390625 -0.21875q0.921875 0 1.625 0.3125q0.71875 0.3125 1.109375 0.9375q0.40625 0.625 0.40625 1.578125l0 3.9375q0 0.421875 0.078125 0.90625q0.078125 0.46875 0.21875 0.8125l0 0.125l-1.5 0q-0.109375 -0.25 -0.171875 -0.671875q-0.0625 -0.421875 -0.0625 -0.78125zm0.25 -3.671875l0.015625 1.015625l-1.46875 0q-0.609375 0 -1.09375 0.09375q-0.484375 0.09375 -0.8125 0.296875q-0.328125 0.1875 -0.5 0.484375q-0.171875 0.296875 -0.171875 0.6875q0 0.390625 0.171875 0.71875q0.1875 0.328125 0.546875 0.53125q0.359375 0.1875 0.890625 0.1875q0.671875 0 1.171875 -0.28125q0.515625 -0.28125 0.8125 -0.6875q0.296875 -0.40625 0.328125 -0.796875l0.609375 0.703125q-0.046875 0.328125 -0.296875 0.734375q-0.234375 0.390625 -0.640625 0.75q-0.40625 0.359375 -0.953125 0.609375q-0.546875 0.234375 -1.234375 0.234375q-0.859375 0 -1.515625 -0.328125q-0.640625 -0.34375 -1.0 -0.90625q-0.34375 -0.578125 -0.34375 -1.28125q0 -0.671875 0.265625 -1.1875q0.265625 -0.53125 0.765625 -0.875q0.5 -0.34375 1.203125 -0.515625q0.703125 -0.1875 1.5625 -0.1875l1.6875 0zm4.90625 -2.0l0 7.125l-1.4375 0l0 -8.453125l1.40625 0l0.03125 1.328125zm2.640625 -1.375l0 1.34375q-0.1875 -0.046875 -0.34375 -0.046875q-0.15625 -0.015625 -0.359375 -0.015625q-0.5 0 -0.890625 0.15625q-0.375 0.15625 -0.640625 0.4375q-0.265625 0.28125 -0.421875 0.671875q-0.15625 0.375 -0.203125 0.84375l-0.40625 0.234375q0 -0.765625 0.15625 -1.4375q0.15625 -0.671875 0.46875 -1.1875q0.328125 -0.53125 0.8125 -0.8125q0.5 -0.296875 1.1875 -0.296875q0.15625 0 0.359375 0.03125q0.203125 0.03125 0.28125 0.078125zm4.6953125 8.65625q-0.875 0 -1.59375 -0.296875q-0.71875 -0.3125 -1.234375 -0.859375q-0.5 -0.546875 -0.78125 -1.296875q-0.265625 -0.75 -0.265625 -1.640625l0 -0.328125q0 -1.03125 0.296875 -1.828125q0.3125 -0.8125 0.828125 -1.375q0.53125 -0.5625 1.1875 -0.84375q0.671875 -0.296875 1.375 -0.296875q0.90625 0 1.5625 0.3125q0.671875 0.3125 1.09375 0.875q0.421875 0.546875 0.625 1.3125q0.203125 0.75 0.203125 1.640625l0 0.640625l-6.3125 0l0 -1.171875l4.859375 0l0 -0.109375q-0.03125 -0.5625 -0.234375 -1.09375q-0.1875 -0.53125 -0.625 -0.875q-0.421875 -0.34375 -1.171875 -0.34375q-0.484375 0 -0.90625 0.203125q-0.40625 0.203125 -0.703125 0.609375q-0.296875 0.40625 -0.46875 1.0q-0.15625 0.578125 -0.15625 1.34375l0 0.328125q0 0.609375 0.15625 1.140625q0.171875 0.515625 0.5 0.921875q0.328125 0.390625 0.78125 0.625q0.46875 0.21875 1.0625 0.21875q0.765625 0 1.296875 -0.3125q0.53125 -0.3125 0.9375 -0.828125l0.875 0.6875q-0.28125 0.421875 -0.703125 0.796875q-0.421875 0.375 -1.03125 0.609375q-0.609375 0.234375 -1.453125 0.234375zm10.3125 -1.796875l0 -10.359375l1.453125 0l0 12.0l-1.328125 0l-0.125 -1.640625zm-5.6875 -2.5l0 -0.15625q0 -0.96875 0.234375 -1.765625q0.234375 -0.796875 0.671875 -1.359375q0.453125 -0.578125 1.0625 -0.875q0.609375 -0.3125 1.375 -0.3125q0.796875 0 1.390625 0.28125q0.59375 0.265625 1.015625 0.796875q0.421875 0.53125 0.65625 1.28125q0.25 0.734375 0.34375 1.671875l0 0.71875q-0.09375 0.921875 -0.34375 1.671875q-0.234375 0.734375 -0.65625 1.265625q-0.421875 0.515625 -1.03125 0.796875q-0.59375 0.28125 -1.390625 0.28125q-0.75 0 -1.359375 -0.3125q-0.609375 -0.328125 -1.0625 -0.90625q-0.4375 -0.578125 -0.671875 -1.359375q-0.234375 -0.796875 -0.234375 -1.71875zm1.453125 -0.15625l0 0.15625q0 0.640625 0.125 1.203125q0.125 0.546875 0.390625 0.96875q0.28125 0.421875 0.703125 0.65625q0.421875 0.234375 1.015625 0.234375q0.71875 0 1.171875 -0.296875q0.46875 -0.3125 0.75 -0.8125q0.28125 -0.5 0.4375 -1.078125l0 -1.890625q-0.09375 -0.421875 -0.265625 -0.828125q-0.171875 -0.40625 -0.453125 -0.71875q-0.28125 -0.3125 -0.6875 -0.5q-0.390625 -0.1875 -0.9375 -0.1875q-0.59375 0 -1.03125 0.25q-0.421875 0.234375 -0.703125 0.671875q-0.265625 0.421875 -0.390625 0.984375q-0.125 0.546875 -0.125 1.1875zm13.3515625 -7.703125l0 12.0l-1.453125 0l0 -12.0l1.453125 0zm5.15625 3.546875l-3.6875 3.9375l-2.0625 2.140625l-0.109375 -1.53125l1.46875 -1.765625l2.625 -2.78125l1.765625 0zm-1.3125 8.453125l-3.015625 -4.03125l0.75 -1.296875l3.96875 5.328125l-1.703125 0zm9.828125 -3.078125q0 1.03125 -0.484375 1.765625q-0.484375 0.71875 -1.296875 1.09375q-0.8125 0.375 -1.84375 0.375q-1.015625 0 -1.84375 -0.375q-0.8125 -0.375 -1.296875 -1.09375q-0.46875 -0.734375 -0.46875 -1.765625q0 -0.6875 0.25 -1.25q0.265625 -0.5625 0.75 -0.984375q0.484375 -0.421875 1.140625 -0.65625q0.65625 -0.234375 1.453125 -0.234375q1.046875 0 1.859375 0.40625q0.828125 0.40625 1.296875 1.109375q0.484375 0.703125 0.484375 1.609375zm-1.453125 -0.03125q0 -0.640625 -0.28125 -1.125q-0.265625 -0.484375 -0.765625 -0.75q-0.484375 -0.28125 -1.140625 -0.28125q-0.65625 0 -1.140625 0.28125q-0.484375 0.265625 -0.75 0.75q-0.265625 0.484375 -0.265625 1.125q0 0.65625 0.265625 1.125q0.265625 0.453125 0.75 0.703125q0.484375 0.25 1.15625 0.25q0.671875 0 1.15625 -0.25q0.484375 -0.25 0.75 -0.703125q0.265625 -0.46875 0.265625 -1.125zm1.1875 -5.3125q0 0.828125 -0.4375 1.5q-0.4375 0.65625 -1.203125 1.046875q-0.75 0.375 -1.71875 0.375q-0.96875 0 -1.734375 -0.375q-0.765625 -0.390625 -1.203125 -1.046875q-0.421875 -0.671875 -0.421875 -1.5q0 -0.984375 0.4375 -1.671875q0.4375 -0.703125 1.1875 -1.0625q0.765625 -0.375 1.734375 -0.375q0.96875 0 1.71875 0.375q0.765625 0.359375 1.203125 1.0625q0.4375 0.6875 0.4375 1.671875zm-1.453125 0.03125q0 -0.578125 -0.25 -1.015625q-0.234375 -0.4375 -0.671875 -0.6875q-0.421875 -0.25 -0.984375 -0.25q-0.578125 0 -1.0 0.234375q-0.421875 0.234375 -0.671875 0.671875q-0.234375 0.4375 -0.234375 1.046875q0 0.578125 0.234375 1.015625q0.25 0.4375 0.671875 0.6875q0.4375 0.234375 1.0 0.234375q0.578125 0 1.0 -0.234375q0.421875 -0.25 0.65625 -0.6875q0.25 -0.4375 0.25 -1.015625zm8.6171875 6.140625q0 -0.3125 -0.140625 -0.578125q-0.140625 -0.265625 -0.5625 -0.484375q-0.40625 -0.234375 -1.25 -0.390625q-0.703125 -0.15625 -1.265625 -0.359375q-0.5625 -0.203125 -0.96875 -0.484375q-0.390625 -0.296875 -0.609375 -0.6875q-0.203125 -0.390625 -0.203125 -0.90625q0 -0.5 0.21875 -0.9375q0.234375 -0.453125 0.640625 -0.796875q0.40625 -0.34375 0.984375 -0.53125q0.578125 -0.203125 1.296875 -0.203125q1.015625 0 1.734375 0.359375q0.71875 0.359375 1.09375 0.953125q0.390625 0.59375 0.390625 1.328125l-1.453125 0q0 -0.359375 -0.203125 -0.6875q-0.203125 -0.328125 -0.609375 -0.546875q-0.390625 -0.21875 -0.953125 -0.21875q-0.609375 0 -0.984375 0.1875q-0.359375 0.171875 -0.53125 0.453125q-0.171875 0.28125 -0.171875 0.59375q0 0.234375 0.078125 0.421875q0.09375 0.1875 0.296875 0.34375q0.21875 0.140625 0.59375 0.28125q0.390625 0.125 0.984375 0.265625q1.03125 0.234375 1.703125 0.5625q0.671875 0.328125 1.0 0.8125q0.328125 0.46875 0.328125 1.140625q0 0.5625 -0.234375 1.03125q-0.21875 0.453125 -0.65625 0.78125q-0.4375 0.328125 -1.03125 0.515625q-0.59375 0.1875 -1.34375 0.1875q-1.109375 0 -1.890625 -0.390625q-0.765625 -0.40625 -1.171875 -1.03125q-0.390625 -0.640625 -0.390625 -1.34375l1.453125 0q0.03125 0.59375 0.34375 0.9375q0.3125 0.34375 0.765625 0.5q0.453125 0.140625 0.890625 0.140625q0.59375 0 1.0 -0.15625q0.40625 -0.15625 0.609375 -0.421875q0.21875 -0.28125 0.21875 -0.640625zm10.6796875 1.21875q0.515625 0 0.953125 -0.203125q0.4375 -0.21875 0.71875 -0.59375q0.28125 -0.375 0.328125 -0.84375l1.375 0q-0.046875 0.75 -0.515625 1.390625q-0.453125 0.640625 -1.203125 1.046875q-0.75 0.390625 -1.65625 0.390625q-0.953125 0 -1.65625 -0.328125q-0.703125 -0.34375 -1.171875 -0.921875q-0.46875 -0.59375 -0.703125 -1.359375q-0.21875 -0.765625 -0.21875 -1.609375l0 -0.328125q0 -0.859375 0.21875 -1.609375q0.234375 -0.765625 0.703125 -1.34375q0.46875 -0.59375 1.171875 -0.921875q0.703125 -0.34375 1.65625 -0.34375q1.0 0 1.734375 0.40625q0.75 0.390625 1.171875 1.09375q0.421875 0.6875 0.46875 1.5625l-1.375 0q-0.046875 -0.53125 -0.296875 -0.953125q-0.25 -0.421875 -0.6875 -0.671875q-0.4375 -0.25 -1.015625 -0.25q-0.65625 0 -1.109375 0.265625q-0.453125 0.25 -0.71875 0.703125q-0.25 0.4375 -0.375 0.96875q-0.109375 0.53125 -0.109375 1.09375l0 0.328125q0 0.546875 0.109375 1.09375q0.109375 0.53125 0.375 0.96875q0.265625 0.4375 0.703125 0.703125q0.453125 0.265625 1.125 0.265625zm6.5625 -10.96875l0 12.0l-1.453125 0l0 -12.0l1.453125 0zm7.5 10.046875l0 -6.5l1.453125 0l0 8.453125l-1.390625 0l-0.0625 -1.953125zm0.265625 -1.78125l0.609375 -0.015625q0 0.84375 -0.1875 1.5625q-0.171875 0.703125 -0.5625 1.234375q-0.390625 0.515625 -1.03125 0.8125q-0.625 0.296875 -1.53125 0.296875q-0.609375 0 -1.125 -0.171875q-0.515625 -0.1875 -0.890625 -0.5625q-0.359375 -0.375 -0.5625 -0.96875q-0.1875 -0.609375 -0.1875 -1.453125l0 -5.453125l1.4375 0l0 5.46875q0 0.5625 0.125 0.9375q0.140625 0.375 0.359375 0.59375q0.21875 0.203125 0.5 0.296875q0.28125 0.078125 0.578125 0.078125q0.921875 0 1.453125 -0.34375q0.546875 -0.359375 0.78125 -0.96875q0.234375 -0.609375 0.234375 -1.34375zm8.3046875 1.484375q0 -0.3125 -0.140625 -0.578125q-0.140625 -0.265625 -0.5625 -0.484375q-0.40625 -0.234375 -1.25 -0.390625q-0.703125 -0.15625 -1.265625 -0.359375q-0.5625 -0.203125 -0.96875 -0.484375q-0.390625 -0.296875 -0.609375 -0.6875q-0.203125 -0.390625 -0.203125 -0.90625q0 -0.5 0.21875 -0.9375q0.234375 -0.453125 0.640625 -0.796875q0.40625 -0.34375 0.984375 -0.53125q0.578125 -0.203125 1.296875 -0.203125q1.015625 0 1.734375 0.359375q0.71875 0.359375 1.09375 0.953125q0.390625 0.59375 0.390625 1.328125l-1.453125 0q0 -0.359375 -0.203125 -0.6875q-0.203125 -0.328125 -0.609375 -0.546875q-0.390625 -0.21875 -0.953125 -0.21875q-0.609375 0 -0.984375 0.1875q-0.359375 0.171875 -0.53125 0.453125q-0.171875 0.28125 -0.171875 0.59375q0 0.234375 0.078125 0.421875q0.09375 0.1875 0.296875 0.34375q0.21875 0.140625 0.59375 0.28125q0.390625 0.125 0.984375 0.265625q1.03125 0.234375 1.703125 0.5625q0.671875 0.328125 1.0 0.8125q0.328125 0.46875 0.328125 1.140625q0 0.5625 -0.234375 1.03125q-0.21875 0.453125 -0.65625 0.78125q-0.4375 0.328125 -1.03125 0.515625q-0.59375 0.1875 -1.34375 0.1875q-1.109375 0 -1.890625 -0.390625q-0.765625 -0.40625 -1.171875 -1.03125q-0.390625 -0.640625 -0.390625 -1.34375l1.453125 0q0.03125 0.59375 0.34375 0.9375q0.3125 0.34375 0.765625 0.5q0.453125 0.140625 0.890625 0.140625q0.59375 0 1.0 -0.15625q0.40625 -0.15625 0.609375 -0.421875q0.21875 -0.28125 0.21875 -0.640625zm6.8671875 -6.203125l0 1.109375l-4.5625 0l0 -1.109375l4.5625 0zm-3.015625 -2.0625l1.4375 0l0 8.421875q0 0.421875 0.125 0.640625q0.140625 0.21875 0.34375 0.296875q0.21875 0.0625 0.46875 0.0625q0.171875 0 0.375 -0.03125q0.203125 -0.03125 0.296875 -0.0625l0.015625 1.1875q-0.171875 0.0625 -0.453125 0.109375q-0.28125 0.046875 -0.671875 0.046875q-0.53125 0 -0.984375 -0.203125q-0.4375 -0.21875 -0.703125 -0.71875q-0.25 -0.5 -0.25 -1.34375l0 -8.40625zm8.21875 10.671875q-0.875 0 -1.59375 -0.296875q-0.71875 -0.3125 -1.234375 -0.859375q-0.5 -0.546875 -0.78125 -1.296875q-0.265625 -0.75 -0.265625 -1.640625l0 -0.328125q0 -1.03125 0.296875 -1.828125q0.3125 -0.8125 0.828125 -1.375q0.53125 -0.5625 1.1875 -0.84375q0.671875 -0.296875 1.375 -0.296875q0.90625 0 1.5625 0.3125q0.671875 0.3125 1.09375 0.875q0.421875 0.546875 0.625 1.3125q0.203125 0.75 0.203125 1.640625l0 0.640625l-6.3125 0l0 -1.171875l4.859375 0l0 -0.109375q-0.03125 -0.5625 -0.234375 -1.09375q-0.1875 -0.53125 -0.625 -0.875q-0.421875 -0.34375 -1.171875 -0.34375q-0.484375 0 -0.90625 0.203125q-0.40625 0.203125 -0.703125 0.609375q-0.296875 0.40625 -0.46875 1.0q-0.15625 0.578125 -0.15625 1.34375l0 0.328125q0 0.609375 0.15625 1.140625q0.171875 0.515625 0.5 0.921875q0.328125 0.390625 0.78125 0.625q0.46875 0.21875 1.0625 0.21875q0.765625 0 1.296875 -0.3125q0.53125 -0.3125 0.9375 -0.828125l0.875 0.6875q-0.28125 0.421875 -0.703125 0.796875q-0.421875 0.375 -1.03125 0.609375q-0.609375 0.234375 -1.453125 0.234375zm6.421875 -7.28125l0 7.125l-1.4375 0l0 -8.453125l1.40625 0l0.03125 1.328125zm2.640625 -1.375l0 1.34375q-0.1875 -0.046875 -0.34375 -0.046875q-0.15625 -0.015625 -0.359375 -0.015625q-0.5 0 -0.890625 0.15625q-0.375 0.15625 -0.640625 0.4375q-0.265625 0.28125 -0.421875 0.671875q-0.15625 0.375 -0.203125 0.84375l-0.40625 0.234375q0 -0.765625 0.15625 -1.4375q0.15625 -0.671875 0.46875 -1.1875q0.328125 -0.53125 0.8125 -0.8125q0.5 -0.296875 1.1875 -0.296875q0.15625 0 0.359375 0.03125q0.203125 0.03125 0.28125 0.078125z" fill-rule="nonzero"/><path fill="#000000" fill-opacity="0.0" d="m28.934383 326.063l201.73228 0l0 38.771667l-201.73228 0z" fill-rule="evenodd"/><path fill="#595959" d="m120.589584 348.46988l0 -6.5l1.453125 0l0 8.453125l-1.390625 0l-0.0625 -1.953125zm0.265625 -1.78125l0.609375 -0.015625q0 0.84375 -0.1875 1.5625q-0.171875 0.703125 -0.5625 1.234375q-0.390625 0.515625 -1.03125 0.8125q-0.625 0.296875 -1.53125 0.296875q-0.609375 0 -1.125 -0.171875q-0.515625 -0.1875 -0.890625 -0.5625q-0.359375 -0.375 -0.5625 -0.96875q-0.1875 -0.609375 -0.1875 -1.453125l0 -5.453125l1.4375 0l0 5.46875q0 0.5625 0.125 0.9375q0.140625 0.375 0.359375 0.59375q0.21875 0.203125 0.5 0.296875q0.28125 0.078125 0.578125 0.078125q0.921875 0 1.453125 -0.34375q0.546875 -0.359375 0.78125 -0.96875q0.234375 -0.609375 0.234375 -1.34375zm8.3046875 1.484375q0 -0.3125 -0.140625 -0.578125q-0.140625 -0.265625 -0.5625 -0.484375q-0.40625 -0.234375 -1.25 -0.390625q-0.703125 -0.15625 -1.265625 -0.359375q-0.5625 -0.203125 -0.96875 -0.484375q-0.390625 -0.296875 -0.609375 -0.6875q-0.203125 -0.390625 -0.203125 -0.90625q0 -0.5 0.21875 -0.9375q0.234375 -0.453125 0.640625 -0.796875q0.40625 -0.34375 0.984375 -0.53125q0.578125 -0.203125 1.296875 -0.203125q1.015625 0 1.734375 0.359375q0.71875 0.359375 1.09375 0.953125q0.390625 0.59375 0.390625 1.328125l-1.453125 0q0 -0.359375 -0.203125 -0.6875q-0.203125 -0.328125 -0.609375 -0.546875q-0.390625 -0.21875 -0.953125 -0.21875q-0.609375 0 -0.984375 0.1875q-0.359375 0.171875 -0.53125 0.453125q-0.171875 0.28125 -0.171875 0.59375q0 0.234375 0.078125 0.421875q0.09375 0.1875 0.296875 0.34375q0.21875 0.140625 0.59375 0.28125q0.390625 0.125 0.984375 0.265625q1.03125 0.234375 1.703125 0.5625q0.671875 0.328125 1.0 0.8125q0.328125 0.46875 0.328125 1.140625q0 0.5625 -0.234375 1.03125q-0.21875 0.453125 -0.65625 0.78125q-0.4375 0.328125 -1.03125 0.515625q-0.59375 0.1875 -1.34375 0.1875q-1.109375 0 -1.890625 -0.390625q-0.765625 -0.40625 -1.171875 -1.03125q-0.390625 -0.640625 -0.390625 -1.34375l1.453125 0q0.03125 0.59375 0.34375 0.9375q0.3125 0.34375 0.765625 0.5q0.453125 0.140625 0.890625 0.140625q0.59375 0 1.0 -0.15625q0.40625 -0.15625 0.609375 -0.421875q0.21875 -0.28125 0.21875 -0.640625zm6.8359375 2.40625q-0.875 0 -1.59375 -0.296875q-0.71875 -0.3125 -1.234375 -0.859375q-0.5 -0.546875 -0.78125 -1.296875q-0.265625 -0.75 -0.265625 -1.640625l0 -0.328125q0 -1.03125 0.296875 -1.828125q0.3125 -0.8125 0.828125 -1.375q0.53125 -0.5625 1.1875 -0.84375q0.671875 -0.296875 1.375 -0.296875q0.90625 0 1.5625 0.3125q0.671875 0.3125 1.09375 0.875q0.421875 0.546875 0.625 1.3125q0.203125 0.75 0.203125 1.640625l0 0.640625l-6.3125 0l0 -1.171875l4.859375 0l0 -0.109375q-0.03125 -0.5625 -0.234375 -1.09375q-0.1875 -0.53125 -0.625 -0.875q-0.421875 -0.34375 -1.171875 -0.34375q-0.484375 0 -0.90625 0.203125q-0.40625 0.203125 -0.703125 0.609375q-0.296875 0.40625 -0.46875 1.0q-0.15625 0.578125 -0.15625 1.34375l0 0.328125q0 0.609375 0.15625 1.140625q0.171875 0.515625 0.5 0.921875q0.328125 0.390625 0.78125 0.625q0.46875 0.21875 1.0625 0.21875q0.765625 0 1.296875 -0.3125q0.53125 -0.3125 0.9375 -0.828125l0.875 0.6875q-0.28125 0.421875 -0.703125 0.796875q-0.421875 0.375 -1.03125 0.609375q-0.609375 0.234375 -1.453125 0.234375zm6.421875 -7.28125l0 7.125l-1.4375 0l0 -8.453125l1.40625 0l0.03125 1.328125zm2.640625 -1.375l0 1.34375q-0.1875 -0.046875 -0.34375 -0.046875q-0.15625 -0.015625 -0.359375 -0.015625q-0.5 0 -0.890625 0.15625q-0.375 0.15625 -0.640625 0.4375q-0.265625 0.28125 -0.421875 0.671875q-0.15625 0.375 -0.203125 0.84375l-0.40625 0.234375q0 -0.765625 0.15625 -1.4375q0.15625 -0.671875 0.46875 -1.1875q0.328125 -0.53125 0.8125 -0.8125q0.5 -0.296875 1.1875 -0.296875q0.15625 0 0.359375 0.03125q0.203125 0.03125 0.28125 0.078125z" fill-rule="nonzero"/><path fill="#000000" fill-opacity="0.0" d="m219.07874 333.60367l201.7323 0l0 38.771667l-201.7323 0z" fill-rule="evenodd"/><path fill="#595959" d="m234.89801 345.96368l0 12.0l-1.453125 0l0 -12.0l1.453125 0zm1.9375 7.859375l0 -0.171875q0 -0.921875 0.265625 -1.703125q0.265625 -0.78125 0.765625 -1.359375q0.5 -0.59375 1.203125 -0.90625q0.71875 -0.328125 1.609375 -0.328125q0.890625 0 1.59375 0.328125q0.71875 0.3125 1.21875 0.90625q0.515625 0.578125 0.78125 1.359375q0.265625 0.78125 0.265625 1.703125l0 0.171875q0 0.921875 -0.265625 1.703125q-0.265625 0.78125 -0.78125 1.359375q-0.5 0.578125 -1.203125 0.90625q-0.703125 0.328125 -1.59375 0.328125q-0.890625 0 -1.609375 -0.328125q-0.703125 -0.328125 -1.21875 -0.90625q-0.5 -0.578125 -0.765625 -1.359375q-0.265625 -0.78125 -0.265625 -1.703125zm1.453125 -0.171875l0 0.171875q0 0.640625 0.140625 1.203125q0.15625 0.546875 0.453125 0.984375q0.296875 0.421875 0.75 0.671875q0.453125 0.25 1.0625 0.25q0.59375 0 1.03125 -0.25q0.453125 -0.25 0.75 -0.671875q0.296875 -0.4375 0.453125 -0.984375q0.15625 -0.5625 0.15625 -1.203125l0 -0.171875q0 -0.625 -0.15625 -1.1875q-0.15625 -0.5625 -0.453125 -0.984375q-0.296875 -0.4375 -0.75 -0.6875q-0.453125 -0.25 -1.046875 -0.25q-0.59375 0 -1.046875 0.25q-0.453125 0.25 -0.75 0.6875q-0.296875 0.421875 -0.453125 0.984375q-0.140625 0.5625 -0.140625 1.1875zm11.4375 3.28125q0.515625 0 0.953125 -0.203125q0.4375 -0.21875 0.71875 -0.59375q0.28125 -0.375 0.328125 -0.84375l1.375 0q-0.046875 0.75 -0.515625 1.390625q-0.453125 0.640625 -1.203125 1.046875q-0.75 0.390625 -1.65625 0.390625q-0.953125 0 -1.65625 -0.328125q-0.703125 -0.34375 -1.171875 -0.921875q-0.46875 -0.59375 -0.703125 -1.359375q-0.21875 -0.765625 -0.21875 -1.609375l0 -0.328125q0 -0.859375 0.21875 -1.609375q0.234375 -0.765625 0.703125 -1.34375q0.46875 -0.59375 1.171875 -0.921875q0.703125 -0.34375 1.65625 -0.34375q1.0 0 1.734375 0.40625q0.75 0.390625 1.171875 1.09375q0.421875 0.6875 0.46875 1.5625l-1.375 0q-0.046875 -0.53125 -0.296875 -0.953125q-0.25 -0.421875 -0.6875 -0.671875q-0.4375 -0.25 -1.015625 -0.25q-0.65625 0 -1.109375 0.265625q-0.453125 0.25 -0.71875 0.703125q-0.25 0.4375 -0.375 0.96875q-0.109375 0.53125 -0.109375 1.09375l0 0.328125q0 0.546875 0.109375 1.09375q0.109375 0.53125 0.375 0.96875q0.265625 0.4375 0.703125 0.703125q0.453125 0.265625 1.125 0.265625zm9.984375 -0.421875l0 -4.34375q0 -0.5 -0.203125 -0.875q-0.203125 -0.375 -0.609375 -0.578125q-0.390625 -0.203125 -0.96875 -0.203125q-0.546875 0 -0.96875 0.1875q-0.40625 0.1875 -0.640625 0.5q-0.21875 0.296875 -0.21875 0.65625l-1.453125 0q0 -0.453125 0.234375 -0.890625q0.234375 -0.453125 0.671875 -0.8125q0.453125 -0.375 1.0625 -0.578125q0.625 -0.21875 1.390625 -0.21875q0.921875 0 1.625 0.3125q0.71875 0.3125 1.109375 0.9375q0.40625 0.625 0.40625 1.578125l0 3.9375q0 0.421875 0.078125 0.90625q0.078125 0.46875 0.21875 0.8125l0 0.125l-1.5 0q-0.109375 -0.25 -0.171875 -0.671875q-0.0625 -0.421875 -0.0625 -0.78125zm0.25 -3.671875l0.015625 1.015625l-1.46875 0q-0.609375 0 -1.09375 0.09375q-0.484375 0.09375 -0.8125 0.296875q-0.328125 0.1875 -0.5 0.484375q-0.171875 0.296875 -0.171875 0.6875q0 0.390625 0.171875 0.71875q0.1875 0.328125 0.546875 0.53125q0.359375 0.1875 0.890625 0.1875q0.671875 0 1.171875 -0.28125q0.515625 -0.28125 0.8125 -0.6875q0.296875 -0.40625 0.328125 -0.796875l0.609375 0.703125q-0.046875 0.328125 -0.296875 0.734375q-0.234375 0.390625 -0.640625 0.75q-0.40625 0.359375 -0.953125 0.609375q-0.546875 0.234375 -1.234375 0.234375q-0.859375 0 -1.515625 -0.328125q-0.640625 -0.34375 -1.0 -0.90625q-0.34375 -0.578125 -0.34375 -1.28125q0 -0.671875 0.265625 -1.1875q0.265625 -0.53125 0.765625 -0.875q0.5 -0.34375 1.203125 -0.515625q0.703125 -0.1875 1.5625 -0.1875l1.6875 0zm5.03125 -6.875l0 12.0l-1.453125 0l0 -12.0l1.453125 0zm5.90625 7.859375l0 -0.171875q0 -0.921875 0.265625 -1.703125q0.265625 -0.78125 0.765625 -1.359375q0.5 -0.59375 1.203125 -0.90625q0.71875 -0.328125 1.609375 -0.328125q0.890625 0 1.59375 0.328125q0.71875 0.3125 1.21875 0.90625q0.515625 0.578125 0.78125 1.359375q0.265625 0.78125 0.265625 1.703125l0 0.171875q0 0.921875 -0.265625 1.703125q-0.265625 0.78125 -0.78125 1.359375q-0.5 0.578125 -1.203125 0.90625q-0.703125 0.328125 -1.59375 0.328125q-0.890625 0 -1.609375 -0.328125q-0.703125 -0.328125 -1.21875 -0.90625q-0.5 -0.578125 -0.765625 -1.359375q-0.265625 -0.78125 -0.265625 -1.703125zm1.453125 -0.171875l0 0.171875q0 0.640625 0.140625 1.203125q0.15625 0.546875 0.453125 0.984375q0.296875 0.421875 0.75 0.671875q0.453125 0.25 1.0625 0.25q0.59375 0 1.03125 -0.25q0.453125 -0.25 0.75 -0.671875q0.296875 -0.4375 0.453125 -0.984375q0.15625 -0.5625 0.15625 -1.203125l0 -0.171875q0 -0.625 -0.15625 -1.1875q-0.15625 -0.5625 -0.453125 -0.984375q-0.296875 -0.4375 -0.75 -0.6875q-0.453125 -0.25 -1.046875 -0.25q-0.59375 0 -1.046875 0.25q-0.453125 0.25 -0.75 0.6875q-0.296875 0.421875 -0.453125 0.984375q-0.140625 0.5625 -0.140625 1.1875zm9.5 -2.8125l0 7.125l-1.4375 0l0 -8.453125l1.40625 0l0.03125 1.328125zm2.640625 -1.375l0 1.34375q-0.1875 -0.046875 -0.34375 -0.046875q-0.15625 -0.015625 -0.359375 -0.015625q-0.5 0 -0.890625 0.15625q-0.375 0.15625 -0.640625 0.4375q-0.265625 0.28125 -0.421875 0.671875q-0.15625 0.375 -0.203125 0.84375l-0.40625 0.234375q0 -0.765625 0.15625 -1.4375q0.15625 -0.671875 0.46875 -1.1875q0.328125 -0.53125 0.8125 -0.8125q0.5 -0.296875 1.1875 -0.296875q0.15625 0 0.359375 0.03125q0.203125 0.03125 0.28125 0.078125zm6.75 1.375l0 7.125l-1.4375 0l0 -8.453125l1.40625 0l0.03125 1.328125zm2.640625 -1.375l0 1.34375q-0.1875 -0.046875 -0.34375 -0.046875q-0.15625 -0.015625 -0.359375 -0.015625q-0.5 0 -0.890625 0.15625q-0.375 0.15625 -0.640625 0.4375q-0.265625 0.28125 -0.421875 0.671875q-0.15625 0.375 -0.203125 0.84375l-0.40625 0.234375q0 -0.765625 0.15625 -1.4375q0.15625 -0.671875 0.46875 -1.1875q0.328125 -0.53125 0.8125 -0.8125q0.5 -0.296875 1.1875 -0.296875q0.15625 0 0.359375 0.03125q0.203125 0.03125 0.28125 0.078125zm4.6953125 8.65625q-0.875 0 -1.59375 -0.296875q-0.71875 -0.3125 -1.234375 -0.859375q-0.5 -0.546875 -0.78125 -1.296875q-0.265625 -0.75 -0.265625 -1.640625l0 -0.328125q0 -1.03125 0.296875 -1.828125q0.3125 -0.8125 0.828125 -1.375q0.53125 -0.5625 1.1875 -0.84375q0.671875 -0.296875 1.375 -0.296875q0.90625 0 1.5625 0.3125q0.671875 0.3125 1.09375 0.875q0.421875 0.546875 0.625 1.3125q0.203125 0.75 0.203125 1.640625l0 0.640625l-6.3125 0l0 -1.171875l4.859375 0l0 -0.109375q-0.03125 -0.5625 -0.234375 -1.09375q-0.1875 -0.53125 -0.625 -0.875q-0.421875 -0.34375 -1.171875 -0.34375q-0.484375 0 -0.90625 0.203125q-0.40625 0.203125 -0.703125 0.609375q-0.296875 0.40625 -0.46875 1.0q-0.15625 0.578125 -0.15625 1.34375l0 0.328125q0 0.609375 0.15625 1.140625q0.171875 0.515625 0.5 0.921875q0.328125 0.390625 0.78125 0.625q0.46875 0.21875 1.0625 0.21875q0.765625 0 1.296875 -0.3125q0.53125 -0.3125 0.9375 -0.828125l0.875 0.6875q-0.28125 0.421875 -0.703125 0.796875q-0.421875 0.375 -1.03125 0.609375q-0.609375 0.234375 -1.453125 0.234375zm6.421875 -6.9375l0 6.78125l-1.453125 0l0 -8.453125l1.375 0l0.078125 1.671875zm-0.296875 2.234375l-0.671875 -0.03125q0 -0.859375 0.21875 -1.59375q0.21875 -0.75 0.640625 -1.296875q0.4375 -0.546875 1.078125 -0.84375q0.640625 -0.296875 1.484375 -0.296875q0.59375 0 1.09375 0.171875q0.5 0.15625 0.859375 0.515625q0.375 0.359375 0.578125 0.921875q0.203125 0.5625 0.203125 1.359375l0 5.640625l-1.4375 0l0 -5.5625q0 -0.671875 -0.234375 -1.0625q-0.21875 -0.40625 -0.625 -0.578125q-0.40625 -0.1875 -0.953125 -0.1875q-0.640625 0 -1.078125 0.234375q-0.421875 0.21875 -0.6875 0.625q-0.25 0.390625 -0.359375 0.90625q-0.109375 0.5 -0.109375 1.078125zm5.46875 -0.796875l-0.96875 0.296875q0.015625 -0.703125 0.234375 -1.34375q0.21875 -0.640625 0.640625 -1.140625q0.4375 -0.5 1.0625 -0.78125q0.625 -0.296875 1.421875 -0.296875q0.6875 0 1.203125 0.1875q0.53125 0.171875 0.890625 0.546875q0.375 0.359375 0.5625 0.9375q0.1875 0.578125 0.1875 1.375l0 5.5625l-1.453125 0l0 -5.578125q0 -0.703125 -0.234375 -1.09375q-0.21875 -0.40625 -0.625 -0.5625q-0.390625 -0.15625 -0.953125 -0.15625q-0.46875 0 -0.84375 0.171875q-0.359375 0.15625 -0.609375 0.4375q-0.25 0.28125 -0.390625 0.65625q-0.125 0.359375 -0.125 0.78125zm7.03125 1.203125l0 -0.171875q0 -0.921875 0.265625 -1.703125q0.265625 -0.78125 0.765625 -1.359375q0.5 -0.59375 1.203125 -0.90625q0.71875 -0.328125 1.609375 -0.328125q0.890625 0 1.59375 0.328125q0.71875 0.3125 1.21875 0.90625q0.515625 0.578125 0.78125 1.359375q0.265625 0.78125 0.265625 1.703125l0 0.171875q0 0.921875 -0.265625 1.703125q-0.265625 0.78125 -0.78125 1.359375q-0.5 0.578125 -1.203125 0.90625q-0.703125 0.328125 -1.59375 0.328125q-0.890625 0 -1.609375 -0.328125q-0.703125 -0.328125 -1.21875 -0.90625q-0.5 -0.578125 -0.765625 -1.359375q-0.265625 -0.78125 -0.265625 -1.703125zm1.453125 -0.171875l0 0.171875q0 0.640625 0.140625 1.203125q0.15625 0.546875 0.453125 0.984375q0.296875 0.421875 0.75 0.671875q0.453125 0.25 1.0625 0.25q0.59375 0 1.03125 -0.25q0.453125 -0.25 0.75 -0.671875q0.296875 -0.4375 0.453125 -0.984375q0.15625 -0.5625 0.15625 -1.203125l0 -0.171875q0 -0.625 -0.15625 -1.1875q-0.15625 -0.5625 -0.453125 -0.984375q-0.296875 -0.4375 -0.75 -0.6875q-0.453125 -0.25 -1.046875 -0.25q-0.59375 0 -1.046875 0.25q-0.453125 0.25 -0.75 0.6875q-0.296875 0.421875 -0.453125 0.984375q-0.140625 0.5625 -0.140625 1.1875zm11.59375 -4.140625l0 1.109375l-4.5625 0l0 -1.109375l4.5625 0zm-3.015625 -2.0625l1.4375 0l0 8.421875q0 0.421875 0.125 0.640625q0.140625 0.21875 0.34375 0.296875q0.21875 0.0625 0.46875 0.0625q0.171875 0 0.375 -0.03125q0.203125 -0.03125 0.296875 -0.0625l0.015625 1.1875q-0.171875 0.0625 -0.453125 0.109375q-0.28125 0.046875 -0.671875 0.046875q-0.53125 0 -0.984375 -0.203125q-0.4375 -0.21875 -0.703125 -0.71875q-0.25 -0.5 -0.25 -1.34375l0 -8.40625zm8.21875 10.671875q-0.875 0 -1.59375 -0.296875q-0.71875 -0.3125 -1.234375 -0.859375q-0.5 -0.546875 -0.78125 -1.296875q-0.265625 -0.75 -0.265625 -1.640625l0 -0.328125q0 -1.03125 0.296875 -1.828125q0.3125 -0.8125 0.828125 -1.375q0.53125 -0.5625 1.1875 -0.84375q0.671875 -0.296875 1.375 -0.296875q0.90625 0 1.5625 0.3125q0.671875 0.3125 1.09375 0.875q0.421875 0.546875 0.625 1.3125q0.203125 0.75 0.203125 1.640625l0 0.640625l-6.3125 0l0 -1.171875l4.859375 0l0 -0.109375q-0.03125 -0.5625 -0.234375 -1.09375q-0.1875 -0.53125 -0.625 -0.875q-0.421875 -0.34375 -1.171875 -0.34375q-0.484375 0 -0.90625 0.203125q-0.40625 0.203125 -0.703125 0.609375q-0.296875 0.40625 -0.46875 1.0q-0.15625 0.578125 -0.15625 1.34375l0 0.328125q0 0.609375 0.15625 1.140625q0.171875 0.515625 0.5 0.921875q0.328125 0.390625 0.78125 0.625q0.46875 0.21875 1.0625 0.21875q0.765625 0 1.296875 -0.3125q0.53125 -0.3125 0.9375 -0.828125l0.875 0.6875q-0.28125 0.421875 -0.703125 0.796875q-0.421875 0.375 -1.03125 0.609375q-0.609375 0.234375 -1.453125 0.234375zm14.28125 -1.796875l0 -10.359375l1.453125 0l0 12.0l-1.328125 0l-0.125 -1.640625zm-5.6875 -2.5l0 -0.15625q0 -0.96875 0.234375 -1.765625q0.234375 -0.796875 0.671875 -1.359375q0.453125 -0.578125 1.0625 -0.875q0.609375 -0.3125 1.375 -0.3125q0.796875 0 1.390625 0.28125q0.59375 0.265625 1.015625 0.796875q0.421875 0.53125 0.65625 1.28125q0.25 0.734375 0.34375 1.671875l0 0.71875q-0.09375 0.921875 -0.34375 1.671875q-0.234375 0.734375 -0.65625 1.265625q-0.421875 0.515625 -1.03125 0.796875q-0.59375 0.28125 -1.390625 0.28125q-0.75 0 -1.359375 -0.3125q-0.609375 -0.328125 -1.0625 -0.90625q-0.4375 -0.578125 -0.671875 -1.359375q-0.234375 -0.796875 -0.234375 -1.71875zm1.453125 -0.15625l0 0.15625q0 0.640625 0.125 1.203125q0.125 0.546875 0.390625 0.96875q0.28125 0.421875 0.703125 0.65625q0.421875 0.234375 1.015625 0.234375q0.71875 0 1.171875 -0.296875q0.46875 -0.3125 0.75 -0.8125q0.28125 -0.5 0.4375 -1.078125l0 -1.890625q-0.09375 -0.421875 -0.265625 -0.828125q-0.171875 -0.40625 -0.453125 -0.71875q-0.28125 -0.3125 -0.6875 -0.5q-0.390625 -0.1875 -0.9375 -0.1875q-0.59375 0 -1.03125 0.25q-0.421875 0.234375 -0.703125 0.671875q-0.265625 0.421875 -0.390625 0.984375q-0.125 0.546875 -0.125 1.1875zm11.4296875 4.453125q-0.875 0 -1.59375 -0.296875q-0.71875 -0.3125 -1.234375 -0.859375q-0.5 -0.546875 -0.78125 -1.296875q-0.265625 -0.75 -0.265625 -1.640625l0 -0.328125q0 -1.03125 0.296875 -1.828125q0.3125 -0.8125 0.828125 -1.375q0.53125 -0.5625 1.1875 -0.84375q0.671875 -0.296875 1.375 -0.296875q0.90625 0 1.5625 0.3125q0.671875 0.3125 1.09375 0.875q0.421875 0.546875 0.625 1.3125q0.203125 0.75 0.203125 1.640625l0 0.640625l-6.3125 0l0 -1.171875l4.859375 0l0 -0.109375q-0.03125 -0.5625 -0.234375 -1.09375q-0.1875 -0.53125 -0.625 -0.875q-0.421875 -0.34375 -1.171875 -0.34375q-0.484375 0 -0.90625 0.203125q-0.40625 0.203125 -0.703125 0.609375q-0.296875 0.40625 -0.46875 1.0q-0.15625 0.578125 -0.15625 1.34375l0 0.328125q0 0.609375 0.15625 1.140625q0.171875 0.515625 0.5 0.921875q0.328125 0.390625 0.78125 0.625q0.46875 0.21875 1.0625 0.21875q0.765625 0 1.296875 -0.3125q0.53125 -0.3125 0.9375 -0.828125l0.875 0.6875q-0.28125 0.421875 -0.703125 0.796875q-0.421875 0.375 -1.03125 0.609375q-0.609375 0.234375 -1.453125 0.234375zm6.421875 -6.984375l0 10.078125l-1.453125 0l0 -11.703125l1.328125 0l0.125 1.625zm5.703125 2.53125l0 0.15625q0 0.921875 -0.21875 1.71875q-0.21875 0.78125 -0.640625 1.359375q-0.421875 0.578125 -1.03125 0.90625q-0.609375 0.3125 -1.390625 0.3125q-0.8125 0 -1.4375 -0.265625q-0.609375 -0.265625 -1.046875 -0.765625q-0.421875 -0.515625 -0.671875 -1.21875q-0.25 -0.71875 -0.34375 -1.609375l0 -0.875q0.09375 -0.9375 0.34375 -1.671875q0.265625 -0.75 0.6875 -1.28125q0.421875 -0.53125 1.03125 -0.796875q0.609375 -0.28125 1.40625 -0.28125q0.796875 0 1.40625 0.3125q0.625 0.296875 1.046875 0.875q0.421875 0.5625 0.640625 1.359375q0.21875 0.796875 0.21875 1.765625zm-1.453125 0.15625l0 -0.15625q0 -0.640625 -0.140625 -1.1875q-0.125 -0.5625 -0.40625 -0.984375q-0.28125 -0.4375 -0.71875 -0.671875q-0.421875 -0.25 -1.015625 -0.25q-0.546875 0 -0.953125 0.1875q-0.390625 0.1875 -0.671875 0.5q-0.28125 0.3125 -0.46875 0.71875q-0.171875 0.40625 -0.25 0.828125l0 2.03125q0.15625 0.546875 0.4375 1.03125q0.28125 0.46875 0.75 0.765625q0.46875 0.296875 1.171875 0.296875q0.59375 0 1.015625 -0.25q0.421875 -0.25 0.703125 -0.671875q0.28125 -0.4375 0.40625 -0.984375q0.140625 -0.5625 0.140625 -1.203125zm4.859375 -7.859375l0 12.0l-1.453125 0l0 -12.0l1.453125 0zm1.9375 7.859375l0 -0.171875q0 -0.921875 0.265625 -1.703125q0.265625 -0.78125 0.765625 -1.359375q0.5 -0.59375 1.203125 -0.90625q0.71875 -0.328125 1.609375 -0.328125q0.890625 0 1.59375 0.328125q0.71875 0.3125 1.21875 0.90625q0.515625 0.578125 0.78125 1.359375q0.265625 0.78125 0.265625 1.703125l0 0.171875q0 0.921875 -0.265625 1.703125q-0.265625 0.78125 -0.78125 1.359375q-0.5 0.578125 -1.203125 0.90625q-0.703125 0.328125 -1.59375 0.328125q-0.890625 0 -1.609375 -0.328125q-0.703125 -0.328125 -1.21875 -0.90625q-0.5 -0.578125 -0.765625 -1.359375q-0.265625 -0.78125 -0.265625 -1.703125zm1.453125 -0.171875l0 0.171875q0 0.640625 0.140625 1.203125q0.15625 0.546875 0.453125 0.984375q0.296875 0.421875 0.75 0.671875q0.453125 0.25 1.0625 0.25q0.59375 0 1.03125 -0.25q0.453125 -0.25 0.75 -0.671875q0.296875 -0.4375 0.453125 -0.984375q0.15625 -0.5625 0.15625 -1.203125l0 -0.171875q0 -0.625 -0.15625 -1.1875q-0.15625 -0.5625 -0.453125 -0.984375q-0.296875 -0.4375 -0.75 -0.6875q-0.453125 -0.25 -1.046875 -0.25q-0.59375 0 -1.046875 0.25q-0.453125 0.25 -0.75 0.6875q-0.296875 0.421875 -0.453125 0.984375q-0.140625 0.5625 -0.140625 1.1875zm10.3203125 3.4375l2.34375 -7.578125l1.546875 0l-3.390625 9.765625q-0.109375 0.3125 -0.3125 0.671875q-0.1875 0.359375 -0.484375 0.6875q-0.296875 0.328125 -0.71875 0.53125q-0.40625 0.21875 -0.984375 0.21875q-0.171875 0 -0.4375 -0.046875q-0.265625 -0.046875 -0.375 -0.078125l-0.015625 -1.171875q0.0625 0 0.203125 0.015625q0.140625 0.015625 0.1875 0.015625q0.5 0 0.84375 -0.140625q0.34375 -0.125 0.578125 -0.421875q0.234375 -0.296875 0.40625 -0.828125l0.609375 -1.640625zm-1.734375 -7.578125l2.203125 6.5625l0.375 1.515625l-1.046875 0.546875l-3.109375 -8.625l1.578125 0zm10.328125 8.609375q-0.875 0 -1.59375 -0.296875q-0.71875 -0.3125 -1.234375 -0.859375q-0.5 -0.546875 -0.78125 -1.296875q-0.265625 -0.75 -0.265625 -1.640625l0 -0.328125q0 -1.03125 0.296875 -1.828125q0.3125 -0.8125 0.828125 -1.375q0.53125 -0.5625 1.1875 -0.84375q0.671875 -0.296875 1.375 -0.296875q0.90625 0 1.5625 0.3125q0.671875 0.3125 1.09375 0.875q0.421875 0.546875 0.625 1.3125q0.203125 0.75 0.203125 1.640625l0 0.640625l-6.3125 0l0 -1.171875l4.859375 0l0 -0.109375q-0.03125 -0.5625 -0.234375 -1.09375q-0.1875 -0.53125 -0.625 -0.875q-0.421875 -0.34375 -1.171875 -0.34375q-0.484375 0 -0.90625 0.203125q-0.40625 0.203125 -0.703125 0.609375q-0.296875 0.40625 -0.46875 1.0q-0.15625 0.578125 -0.15625 1.34375l0 0.328125q0 0.609375 0.15625 1.140625q0.171875 0.515625 0.5 0.921875q0.328125 0.390625 0.78125 0.625q0.46875 0.21875 1.0625 0.21875q0.765625 0 1.296875 -0.3125q0.53125 -0.3125 0.9375 -0.828125l0.875 0.6875q-0.28125 0.421875 -0.703125 0.796875q-0.421875 0.375 -1.03125 0.609375q-0.609375 0.234375 -1.453125 0.234375zm10.3125 -1.796875l0 -10.359375l1.453125 0l0 12.0l-1.328125 0l-0.125 -1.640625zm-5.6875 -2.5l0 -0.15625q0 -0.96875 0.234375 -1.765625q0.234375 -0.796875 0.671875 -1.359375q0.453125 -0.578125 1.0625 -0.875q0.609375 -0.3125 1.375 -0.3125q0.796875 0 1.390625 0.28125q0.59375 0.265625 1.015625 0.796875q0.421875 0.53125 0.65625 1.28125q0.25 0.734375 0.34375 1.671875l0 0.71875q-0.09375 0.921875 -0.34375 1.671875q-0.234375 0.734375 -0.65625 1.265625q-0.421875 0.515625 -1.03125 0.796875q-0.59375 0.28125 -1.390625 0.28125q-0.75 0 -1.359375 -0.3125q-0.609375 -0.328125 -1.0625 -0.90625q-0.4375 -0.578125 -0.671875 -1.359375q-0.234375 -0.796875 -0.234375 -1.71875zm1.453125 -0.15625l0 0.15625q0 0.640625 0.125 1.203125q0.125 0.546875 0.390625 0.96875q0.28125 0.421875 0.703125 0.65625q0.421875 0.234375 1.015625 0.234375q0.71875 0 1.171875 -0.296875q0.46875 -0.3125 0.75 -0.8125q0.28125 -0.5 0.4375 -1.078125l0 -1.890625q-0.09375 -0.421875 -0.265625 -0.828125q-0.171875 -0.40625 -0.453125 -0.71875q-0.28125 -0.3125 -0.6875 -0.5q-0.390625 -0.1875 -0.9375 -0.1875q-0.59375 0 -1.03125 0.25q-0.421875 0.234375 -0.703125 0.671875q-0.265625 0.421875 -0.390625 0.984375q-0.125 0.546875 -0.125 1.1875z" fill-rule="nonzero"/><path fill="#000000" fill-opacity="0.0" d="m543.9869 274.58005l-177.38583 0.03149414" fill-rule="evenodd"/><path stroke="#595959" stroke-width="2.0" stroke-linejoin="round" stroke-linecap="butt" stroke-dasharray="2.0,6.0" d="m531.9869 274.58218l-165.38583 0.02935791" fill-rule="evenodd"/><path fill="#595959" stroke="#595959" stroke-width="2.0" stroke-linecap="butt" d="m531.9875 277.88565l9.075562 -3.3050842l-9.076782 -3.3018494z" fill-rule="evenodd"/></g></svg>