<svg width="297" height="297" viewBox="0 0 297 297" fill="none" xmlns="http://www.w3.org/2000/svg">
<path d="M156.786 197.604L119.366 203.054L212.553 296.228L197.566 238.369L156.786 197.604Z" fill="#372F8A"/>
<path d="M296.543 0.178711L0.447266 84.1646L93.6277 177.319L102.384 137.178L62.2825 97.0855L253.238 43.3457C253.238 43.3457 291.154 5.64839 296.55 0.185504L296.543 0.178711Z" fill="#372F8A"/>
<path d="M253.233 43.3408L197.567 238.369L212.554 296.221L296.551 0.173828C291.155 5.63671 253.239 43.334 253.239 43.334L253.233 43.3408Z" fill="#372F8A"/>
<path d="M132.507 164.183L119.366 203.054L156.786 197.605L190.405 106.494L190.107 106.595L132.507 164.183Z" fill="#195D7F"/>
<path d="M102.378 137.177L93.6221 177.324L132.508 164.186L190.108 106.599L102.378 137.177Z" fill="#39A4DD"/>
</svg>
