<?xml version="1.0" encoding="UTF-8"?>
<svg xmlns="http://www.w3.org/2000/svg" xmlns:xlink="http://www.w3.org/1999/xlink" viewBox="0 0 2548.69 702.54">
  <defs>
    <style>
      .cls-1 {
        fill: none;
      }

      .cls-2 {
        fill: #d8d8d8;
      }

      .cls-3, .cls-4 {
        fill: #372f8a;
      }

      .cls-5 {
        fill: #195d7f;
      }

      .cls-6 {
        fill: #39a4dd;
      }

      .cls-4 {
        filter: url(#drop-shadow-1);
      }
    </style>
    <filter id="drop-shadow-1" filterUnits="userSpaceOnUse">
      <feOffset dx="7" dy="7"/>
      <feGaussianBlur result="blur" stdDeviation="5"/>
      <feFlood flood-color="#333" flood-opacity=".6"/>
      <feComposite in2="blur" operator="in"/>
      <feComposite in="SourceGraphic"/>
    </filter>
  </defs>
  <g id="skypilot-text-dark">
    <g>
      <path class="cls-2" d="M875.31,433.01c0-13.39-4.73-23.67-14.18-30.84-9.45-7.17-26.47-14.73-51.05-22.69-24.58-7.95-44.04-15.79-58.37-23.51-39.08-21.11-58.61-49.55-58.61-85.31,0-18.59,5.24-35.17,15.72-49.75,10.48-14.57,25.52-25.96,45.14-34.15,19.62-8.19,41.63-12.29,66.05-12.29s46.48,4.45,65.7,13.35c19.22,8.9,34.15,21.47,44.78,37.69,10.63,16.23,15.95,34.66,15.95,55.3h-70.9c0-15.75-4.96-28-14.89-36.75s-23.87-13.12-41.83-13.12-30.8,3.66-40.41,10.99c-9.61,7.33-14.42,16.98-14.42,28.95,0,11.19,5.63,20.56,16.9,28.12,11.26,7.56,27.85,14.65,49.75,21.27,40.33,12.13,69.72,27.18,88.15,45.14s27.65,40.33,27.65,67.12c0,29.78-11.27,53.14-33.79,70.07-22.53,16.94-52.86,25.41-90.99,25.41-26.47,0-50.57-4.84-72.32-14.53s-38.33-22.96-49.75-39.82c-11.42-16.86-17.13-36.39-17.13-58.61h71.13c0,37.97,22.69,56.96,68.06,56.96,16.86,0,30.01-3.43,39.47-10.28s14.18-16.42,14.18-28.71Z"/>
      <path class="cls-2" d="M1070.71,420.72l-24.58,24.58v77.99h-68.3V160.29h68.3v201.12l13.23-17.02,65.46-76.81h82.01l-92.4,106.58,100.44,149.12h-78.46l-65.7-102.57Z"/>
      <path class="cls-2" d="M1319.75,426.63l47.27-159.05h73.26l-102.8,295.41-5.67,13.47c-15.28,33.4-40.49,50.1-75.62,50.1-9.93,0-20.01-1.5-30.25-4.49v-51.76l10.4,.24c12.92,0,22.57-1.97,28.95-5.91,6.38-3.94,11.38-10.48,15.01-19.62l8.04-21.03-89.57-256.42h73.5l47.5,159.05Z"/>
      <path class="cls-2" d="M1530.5,402.05v121.24h-70.9V179.19h134.23c25.84,0,48.57,4.73,68.18,14.18s34.7,22.89,45.26,40.29c10.55,17.41,15.83,37.22,15.83,59.44,0,33.72-11.54,60.3-34.62,79.76-23.08,19.46-55.03,29.19-95.83,29.19h-62.15Zm0-57.43h63.34c18.75,0,33.04-4.41,42.89-13.23,9.84-8.82,14.77-21.42,14.77-37.81s-4.96-30.49-14.89-40.88-23.63-15.75-41.12-16.07h-64.99v108Z"/>
      <path class="cls-2" d="M1754.73,201.41c0-10.24,3.43-18.67,10.28-25.29s16.19-9.93,28-9.93,20.95,3.31,27.89,9.93c6.93,6.62,10.4,15.05,10.4,25.29s-3.51,18.91-10.52,25.52c-7.01,6.62-16.27,9.93-27.77,9.93s-20.76-3.31-27.77-9.93c-7.01-6.62-10.52-15.12-10.52-25.52Zm72.55,321.88h-68.54v-255.71h68.54v255.71Z"/>
      <path class="cls-2" d="M1943.51,523.29h-68.54V160.29h68.54v363Z"/>
      <path class="cls-2" d="M1977.02,393.07c0-25.36,4.88-47.97,14.65-67.83,9.77-19.85,23.83-35.21,42.18-46.08,18.35-10.87,39.66-16.31,63.93-16.31,34.5,0,62.66,10.56,84.49,31.67,21.82,21.11,33.99,49.79,36.51,86.02l.47,17.49c0,39.23-10.95,70.7-32.85,94.41-21.9,23.71-51.28,35.57-88.15,35.57s-66.29-11.82-88.27-35.45-32.97-55.77-32.97-96.42v-3.07Zm68.3,4.85c0,24.3,4.57,42.88,13.71,55.74,9.14,12.86,22.21,19.29,39.23,19.29s29.46-6.35,38.76-19.05c9.29-12.7,13.94-33.02,13.94-60.95,0-23.82-4.65-42.29-13.94-55.39-9.3-13.09-22.37-19.64-39.23-19.64s-29.62,6.51-38.76,19.53c-9.14,13.02-13.71,33.18-13.71,60.47Z"/>
      <path class="cls-2" d="M2331,204.72v62.86h43.72v50.1h-43.72v127.62c0,9.45,1.81,16.23,5.44,20.32,3.62,4.1,10.55,6.14,20.8,6.14,7.56,0,14.26-.55,20.09-1.65v51.76c-13.39,4.1-27.18,6.14-41.36,6.14-47.9,0-72.32-24.18-73.26-72.55v-137.78h-37.34v-50.1h37.34v-62.86h68.3Z"/>
    </g>
  </g>
  <g id="skypilot-logo">
    <line class="cls-1" x1="108.58" y1="256.63" x2="544.81" y2="132.87"/>
    <line class="cls-1" x1="199.67" y1="275.66" x2="186.64" y2="234.45"/>
    <line class="cls-1" x1="249.36" y1="392.02" x2="287.29" y2="429.95"/>
    <line class="cls-1" x1="481" y1="196.47" x2="467.97" y2="155.26"/>
    <g>
      <polygon class="cls-3" points="338.91 423.79 283.78 431.82 421.07 569.12 398.99 483.86 338.91 423.79"/>
      <path class="cls-3" d="M544.81,132.87L108.58,256.63l137.28,137.27,12.9-59.15-59.08-59.08,281.33-79.19s55.86-55.55,63.81-63.6Z"/>
      <path class="cls-4" d="M481,196.47l-82.01,287.39,22.08,85.25,123.75-436.25c-7.95,8.05-63.81,63.6-63.81,63.6Z"/>
    </g>
    <g>
      <polygon class="cls-5" points="303.14 374.54 303.14 374.54 283.78 431.82 338.91 423.79 388.44 289.53 388 289.68 303.14 374.54"/>
      <polygon class="cls-6" points="258.75 334.74 245.85 393.9 303.14 374.54 388 289.68 258.75 334.74"/>
    </g>
  </g>
</svg>