<?xml version="1.0" encoding="UTF-8"?>
<svg xmlns="http://www.w3.org/2000/svg" xmlns:xlink="http://www.w3.org/1999/xlink" viewBox="0 0 2548.69 702.54">
  <defs>
    <style>
      .cls-1 {
        fill: none;
      }

      .cls-2, .cls-3 {
        fill: #372f8a;
      }

      .cls-4 {
        fill: #195d7f;
      }

      .cls-5 {
        fill: #39a4dd;
      }

      .cls-6 {
        fill: #d8d8d8;
        font-family: Roboto-Bold, Roboto;
        font-size: 484px;
        letter-spacing: -.03em;
      }

      .cls-3 {
        filter: url(#drop-shadow-1);
      }
    </style>
    <filter id="drop-shadow-1" filterUnits="userSpaceOnUse">
      <feOffset dx="7" dy="7"/>
      <feGaussianBlur result="blur" stdDeviation="5"/>
      <feFlood flood-color="#333" flood-opacity=".6"/>
      <feComposite in2="blur" operator="in"/>
      <feComposite in="SourceGraphic"/>
    </filter>
  </defs>
  <g id="skypilot-text">
    <text class="cls-6" transform="translate(666.16 523.29)"><tspan x="0" y="0">SkyPilot</tspan></text>
  </g>
  <g id="skypilot-logo">
    <line class="cls-1" x1="108.58" y1="256.63" x2="544.81" y2="132.87"/>
    <line class="cls-1" x1="199.67" y1="275.66" x2="186.64" y2="234.45"/>
    <line class="cls-1" x1="249.36" y1="392.02" x2="287.29" y2="429.95"/>
    <line class="cls-1" x1="481" y1="196.47" x2="467.97" y2="155.26"/>
    <g>
      <polygon class="cls-2" points="338.91 423.79 283.78 431.82 421.07 569.12 398.99 483.86 338.91 423.79"/>
      <path class="cls-2" d="M544.81,132.87L108.58,256.63l137.28,137.27,12.9-59.15-59.08-59.08,281.33-79.19s55.86-55.55,63.81-63.6Z"/>
      <path class="cls-3" d="M481,196.47l-82.01,287.39,22.08,85.25,123.75-436.25c-7.95,8.05-63.81,63.6-63.81,63.6Z"/>
    </g>
    <g>
      <polygon class="cls-4" points="303.14 374.54 303.14 374.54 283.78 431.82 338.91 423.79 388.44 289.53 388 289.68 303.14 374.54"/>
      <polygon class="cls-5" points="258.75 334.74 245.85 393.9 303.14 374.54 388 289.68 258.75 334.74"/>
    </g>
  </g>
</svg>
