<svg width="242" height="53" viewBox="0 0 242 53" fill="none" xmlns="http://www.w3.org/2000/svg">
<path d="M25.1258 30.8274L19.2842 31.6783L33.8316 46.2268L31.492 37.1925L25.1258 30.8274Z" fill="#372F8A"/>
<path d="M46.9433 0.000976562L0.719727 13.1148L15.2661 27.6601L16.633 21.3925L10.3728 15.1323L40.183 6.74118C40.183 6.74118 46.102 0.855027 46.9444 0.00203721L46.9433 0.000976562Z" fill="#372F8A"/>
<path d="M40.1821 6.74021L31.4922 37.1925L33.8318 46.2257L46.9445 0C46.1022 0.85299 40.1831 6.73915 40.1831 6.73915L40.1821 6.74021Z" fill="#372F8A"/>
<path d="M21.3356 25.6089L19.2842 31.6783L25.1258 30.8275L30.3741 16.6011L30.3275 16.617L21.3356 25.6089Z" fill="#195D7F"/>
<path d="M16.632 21.3918L15.2651 27.6605L21.3357 25.6091L30.3276 16.6172L16.632 21.3918Z" fill="#39A4DD"/>
<path d="M81.9648 31.8077C81.9648 30.3889 81.4636 29.2996 80.4623 28.5399C79.461 27.7802 77.6575 26.9791 75.053 26.1357C72.4485 25.2933 70.3865 24.4625 68.8681 23.6445C64.7271 21.4077 62.6577 18.3941 62.6577 14.605C62.6577 12.6352 63.2129 10.8783 64.3234 9.33342C65.4339 7.78957 67.0275 6.58268 69.1065 5.71486C71.1854 4.84704 73.5176 4.4126 76.1052 4.4126C78.6928 4.4126 81.0303 4.88412 83.0668 5.82718C85.1034 6.77023 86.6854 8.10216 87.8118 9.82084C88.9381 11.5406 89.5018 13.4934 89.5018 15.6805H81.9892C81.9892 14.0116 81.4636 12.7136 80.4115 11.7864C79.3593 10.8593 77.8822 10.3962 75.9791 10.3962C74.076 10.3962 72.7155 10.784 71.6972 11.5607C70.6789 12.3374 70.1693 13.3599 70.1693 14.6283C70.1693 15.814 70.7658 16.8068 71.96 17.6079C73.1531 18.409 74.911 19.1602 77.2316 19.8617C81.505 21.147 84.6192 22.7417 86.572 24.6448C88.5249 26.5478 89.5018 28.9182 89.5018 31.7569C89.5018 34.9124 88.3077 37.3876 85.9214 39.1816C83.5341 40.9765 80.3203 41.874 76.28 41.874C73.4752 41.874 70.9216 41.3612 68.6169 40.3344C66.3123 39.3077 64.5555 37.9016 63.3454 36.115C62.1353 34.3285 61.5303 32.2591 61.5303 29.9047H69.0673C69.0673 33.928 71.4715 35.9402 76.279 35.9402C78.0655 35.9402 79.4589 35.5768 80.4613 34.8509C81.4636 34.1251 81.9638 33.1111 81.9638 31.8088L81.9648 31.8077Z" fill="#0E2E65"/>
<path d="M102.669 30.5053L100.065 33.1098V41.3737H92.8276V2.90991H100.065V24.2208L101.467 22.4173L108.403 14.2785H117.093L107.302 25.5718L117.945 41.3727H109.631L102.669 30.5043V30.5053Z" fill="#0E2E65"/>
<path d="M129.058 31.132L134.067 14.2789H141.83L130.937 45.5808L130.336 47.0081C128.717 50.5472 126.046 52.3168 122.324 52.3168C121.271 52.3168 120.203 52.1578 119.118 51.841V46.3564L120.22 46.3819C121.589 46.3819 122.612 46.1731 123.288 45.7557C123.964 45.3382 124.494 44.6452 124.878 43.6767L125.73 41.4483L116.239 14.2778H124.027L129.061 31.1309L129.058 31.132Z" fill="#0E2E65"/>
<path d="M151.389 28.528V41.3747H143.876V4.91357H158.099C160.837 4.91357 163.246 5.41477 165.324 6.4161C167.401 7.41743 169 8.84155 170.119 10.6853C171.237 12.53 171.797 14.6291 171.797 16.9836C171.797 20.5566 170.574 23.373 168.128 25.435C165.683 27.497 162.297 28.528 157.974 28.528H151.389ZM151.389 22.4427H158.1C160.087 22.4427 161.601 21.9754 162.645 21.0408C163.687 20.1063 164.21 18.7711 164.21 17.0344C164.21 15.2977 163.684 13.8037 162.632 12.7028C161.58 11.6018 160.128 11.0339 158.275 11H151.389V22.4438V22.4427Z" fill="#0E2E65"/>
<path d="M175.149 7.26808C175.149 6.18304 175.512 5.28979 176.238 4.58832C176.964 3.88686 177.953 3.53613 179.205 3.53613C180.456 3.53613 181.425 3.88686 182.16 4.58832C182.894 5.28979 183.262 6.18304 183.262 7.26808C183.262 8.35312 182.89 9.2718 182.147 9.9722C181.404 10.6737 180.423 11.0244 179.205 11.0244C177.986 11.0244 177.005 10.6737 176.262 9.9722C175.519 9.27074 175.147 8.37007 175.147 7.26808H175.149ZM182.836 41.3748H175.573V14.2795H182.836V41.3748Z" fill="#0E2E65"/>
<path d="M195.152 41.3737H187.89V2.90991H195.152V41.3737Z" fill="#0E2E65"/>
<path d="M198.702 27.5756C198.702 24.8884 199.219 22.4926 200.255 20.3882C201.29 18.2849 202.78 16.6574 204.724 15.5056C206.668 14.3538 208.926 13.7773 211.498 13.7773C215.154 13.7773 218.138 14.8963 220.451 17.1331C222.763 19.37 224.052 22.4089 224.319 26.2479L224.369 28.1011C224.369 32.258 223.209 35.5926 220.888 38.1049C218.568 40.6173 215.455 41.8739 211.548 41.8739C207.641 41.8739 204.524 40.6215 202.195 38.1176C199.866 35.6138 198.701 32.2082 198.701 27.9009V27.5756H198.702ZM205.939 28.0895C205.939 30.6643 206.424 32.6331 207.392 33.9958C208.361 35.3584 209.745 36.0397 211.549 36.0397C213.352 36.0397 214.671 35.3669 215.656 34.0212C216.64 32.6755 217.133 30.5224 217.133 27.5629C217.133 25.0389 216.64 23.0818 215.656 21.6937C214.671 20.3067 213.286 19.6126 211.499 19.6126C209.713 19.6126 208.361 20.3024 207.392 21.682C206.424 23.0616 205.939 25.1978 205.939 28.0895Z" fill="#0E2E65"/>
<path d="M236.211 7.6189V14.2796H240.844V19.5882H236.211V33.111C236.211 34.1123 236.403 34.8307 236.788 35.2641C237.171 35.6985 237.906 35.9147 238.992 35.9147C239.793 35.9147 240.503 35.8564 241.12 35.7399V41.2244C239.702 41.6588 238.24 41.875 236.738 41.875C231.662 41.875 229.075 39.3129 228.975 34.1875V19.5882H225.019V14.2796H228.975V7.6189H236.212H236.211Z" fill="#0E2E65"/>
</svg>
